<svg width="1324" height="155" viewBox="0 0 1324 155" fill="none" xmlns="http://www.w3.org/2000/svg">
<rect x="-4" width="1328" height="155" rx="20" fill="#E2F4FF"/>
<path d="M163.133 58.8237L147.36 50.337C145.685 49.4437 143.703 49.4437 142.028 50.337L126.283 58.8237C125.139 59.4657 124.413 60.6941 124.413 62.0341C124.413 63.402 125.111 64.6303 126.283 65.2445L142.056 73.7312C142.894 74.1778 143.815 74.4012 144.708 74.4012C145.602 74.4012 146.551 74.1778 147.36 73.7312L163.133 65.2445C164.278 64.6303 165.004 63.402 165.004 62.0341C165.004 60.6941 164.278 59.4657 163.133 58.8237Z" fill="#EDA415"/>
<path d="M139.46 76.6902L124.804 69.3761C123.659 68.7898 122.375 68.8736 121.286 69.5157C120.225 70.1857 119.583 71.3302 119.583 72.5865V86.4332C119.583 88.834 120.923 90.9836 123.073 92.0723L137.729 99.3865C138.232 99.6377 138.79 99.7773 139.348 99.7773C139.99 99.7773 140.66 99.5819 141.247 99.2469C142.308 98.5769 142.95 97.4323 142.95 96.1761V82.3294C142.922 79.9286 141.582 77.779 139.46 76.6902Z" fill="#EDA415"/>
<path d="M169.833 72.5865V79.454C168.493 79.0632 167.07 78.8957 165.646 78.8957C161.849 78.8957 158.136 80.2077 155.205 82.5527C151.185 85.7073 148.896 90.4811 148.896 95.6457C148.896 97.0136 149.063 98.3815 149.426 99.6936C149.007 99.6377 148.589 99.4702 148.198 99.219C147.137 98.5769 146.495 97.4323 146.495 96.1761V82.3294C146.495 79.9286 147.835 77.779 149.957 76.6902L164.613 69.3761C165.757 68.7898 167.042 68.8736 168.13 69.5157C169.191 70.1857 169.833 71.3302 169.833 72.5865Z" fill="#EDA415"/>
<path d="M175.361 87.7454C173.072 84.9258 169.582 83.1392 165.646 83.1392C162.687 83.1392 159.951 84.1721 157.801 85.9029C154.898 88.1921 153.083 91.7375 153.083 95.7017C153.083 98.0467 153.753 100.28 154.898 102.178C155.652 103.435 156.601 104.523 157.718 105.417H157.745C159.895 107.203 162.659 108.264 165.646 108.264C168.828 108.264 171.704 107.092 173.909 105.137C174.886 104.3 175.724 103.295 176.394 102.178C177.538 100.28 178.208 98.0467 178.208 95.7017C178.208 92.6867 177.148 89.895 175.361 87.7454ZM171.955 94.1383L165.255 100.336C164.864 100.699 164.334 100.894 163.831 100.894C163.301 100.894 162.77 100.699 162.352 100.28L159.253 97.1812C158.443 96.3717 158.443 95.0317 159.253 94.2221C160.063 93.4125 161.403 93.4125 162.212 94.2221L163.887 95.8971L169.108 91.0675C169.945 90.2858 171.285 90.3417 172.067 91.1792C172.876 92.0446 172.82 93.3567 171.955 94.1383Z" fill="#EDA415"/>
<path d="M223.045 53.0812V55.5773H216.617V59.5315H221.543V61.9834H216.617V68.5H213.524V53.0812H223.045ZM228.331 58.1619C228.728 57.5139 229.244 57.0058 229.877 56.6377C230.525 56.2695 231.261 56.0854 232.086 56.0854V59.3326H231.269C230.297 59.3326 229.56 59.5609 229.06 60.0174C228.574 60.474 228.331 61.2692 228.331 62.4032V68.5H225.238V56.2621H228.331V58.1619ZM245.545 62.116C245.545 62.5578 245.516 62.9554 245.457 63.3088H236.51C236.584 64.1924 236.893 64.8846 237.438 65.3853C237.983 65.886 238.653 66.1364 239.448 66.1364C240.597 66.1364 241.414 65.643 241.9 64.6563H245.236C244.883 65.8345 244.205 66.8064 243.204 67.5722C242.202 68.3233 240.973 68.6988 239.515 68.6988C238.337 68.6988 237.276 68.4411 236.334 67.9257C235.406 67.3955 234.677 66.6518 234.147 65.6946C233.631 64.7373 233.374 63.6328 233.374 62.3811C233.374 61.1146 233.631 60.0027 234.147 59.0455C234.662 58.0882 235.384 57.3519 236.312 56.8365C237.239 56.321 238.307 56.0633 239.515 56.0633C240.678 56.0633 241.716 56.3137 242.629 56.8144C243.557 57.3151 244.271 58.0293 244.772 58.9571C245.288 59.8702 245.545 60.9231 245.545 62.116ZM242.342 61.2324C242.327 60.4371 242.04 59.8039 241.481 59.3326C240.921 58.8467 240.236 58.6037 239.426 58.6037C238.661 58.6037 238.013 58.8393 237.482 59.3106C236.967 59.7671 236.65 60.4077 236.532 61.2324H242.342ZM259.179 62.116C259.179 62.5578 259.149 62.9554 259.091 63.3088H250.144C250.218 64.1924 250.527 64.8846 251.072 65.3853C251.617 65.886 252.287 66.1364 253.082 66.1364C254.231 66.1364 255.048 65.643 255.534 64.6563H258.87C258.516 65.8345 257.839 66.8064 256.837 67.5722C255.836 68.3233 254.606 68.6988 253.148 68.6988C251.97 68.6988 250.91 68.4411 249.967 67.9257C249.04 67.3955 248.311 66.6518 247.78 65.6946C247.265 64.7373 247.007 63.6328 247.007 62.3811C247.007 61.1146 247.265 60.0027 247.78 59.0455C248.296 58.0882 249.017 57.3519 249.945 56.8365C250.873 56.321 251.941 56.0633 253.148 56.0633C254.312 56.0633 255.35 56.3137 256.263 56.8144C257.191 57.3151 257.905 58.0293 258.406 58.9571C258.921 59.8702 259.179 60.9231 259.179 62.116ZM255.976 61.2324C255.961 60.4371 255.674 59.8039 255.114 59.3326C254.555 58.8467 253.87 58.6037 253.06 58.6037C252.294 58.6037 251.646 58.8393 251.116 59.3106C250.601 59.7671 250.284 60.4077 250.166 61.2324H255.976ZM265.905 62.3369C265.905 61.0998 266.148 60.0027 266.634 59.0455C267.134 58.0882 267.812 57.3519 268.666 56.8365C269.52 56.321 270.47 56.0633 271.515 56.0633C272.311 56.0633 273.069 56.24 273.791 56.5935C274.512 56.9322 275.087 57.3887 275.514 57.9631V52.1534H278.651V68.5H275.514V66.6886C275.131 67.2924 274.593 67.7784 273.901 68.1466C273.209 68.5147 272.406 68.6988 271.493 68.6988C270.463 68.6988 269.52 68.4337 268.666 67.9036C267.812 67.3734 267.134 66.6297 266.634 65.6725C266.148 64.7005 265.905 63.5887 265.905 62.3369ZM275.536 62.3811C275.536 61.63 275.389 60.9894 275.094 60.4592C274.8 59.9144 274.402 59.502 273.901 59.2222C273.4 58.9277 272.863 58.7804 272.289 58.7804C271.714 58.7804 271.184 58.9203 270.698 59.2001C270.212 59.4799 269.815 59.8923 269.505 60.4371C269.211 60.9673 269.063 61.6006 269.063 62.3369C269.063 63.0732 269.211 63.7212 269.505 64.2808C269.815 64.8257 270.212 65.2454 270.698 65.5399C271.199 65.8345 271.729 65.9817 272.289 65.9817C272.863 65.9817 273.4 65.8418 273.901 65.562C274.402 65.2675 274.8 64.8551 275.094 64.325C275.389 63.7801 275.536 63.1321 275.536 62.3811ZM293.047 62.116C293.047 62.5578 293.018 62.9554 292.959 63.3088H284.013C284.086 64.1924 284.395 64.8846 284.94 65.3853C285.485 65.886 286.155 66.1364 286.951 66.1364C288.099 66.1364 288.917 65.643 289.403 64.6563H292.738C292.385 65.8345 291.707 66.8064 290.706 67.5722C289.704 68.3233 288.475 68.6988 287.017 68.6988C285.839 68.6988 284.778 68.4411 283.836 67.9257C282.908 67.3955 282.179 66.6518 281.649 65.6946C281.133 64.7373 280.876 63.6328 280.876 62.3811C280.876 61.1146 281.133 60.0027 281.649 59.0455C282.164 58.0882 282.886 57.3519 283.814 56.8365C284.742 56.321 285.809 56.0633 287.017 56.0633C288.18 56.0633 289.218 56.3137 290.131 56.8144C291.059 57.3151 291.773 58.0293 292.274 58.9571C292.79 59.8702 293.047 60.9231 293.047 62.116ZM289.844 61.2324C289.83 60.4371 289.542 59.8039 288.983 59.3326C288.423 58.8467 287.738 58.6037 286.928 58.6037C286.163 58.6037 285.515 58.8393 284.984 59.3106C284.469 59.7671 284.152 60.4077 284.035 61.2324H289.844ZM298.397 52.1534V68.5H295.305V52.1534H298.397ZM303.021 54.8042C302.476 54.8042 302.02 54.6348 301.652 54.2961C301.298 53.9427 301.121 53.5083 301.121 52.9928C301.121 52.4774 301.298 52.0503 301.652 51.7116C302.02 51.3582 302.476 51.1814 303.021 51.1814C303.566 51.1814 304.015 51.3582 304.369 51.7116C304.737 52.0503 304.921 52.4774 304.921 52.9928C304.921 53.5083 304.737 53.9427 304.369 54.2961C304.015 54.6348 303.566 54.8042 303.021 54.8042ZM304.545 56.2621V68.5H301.453V56.2621H304.545ZM312.704 65.6504L315.796 56.2621H319.088L314.559 68.5H310.804L306.298 56.2621H309.611L312.704 65.6504ZM332.201 62.116C332.201 62.5578 332.172 62.9554 332.113 63.3088H323.166C323.24 64.1924 323.549 64.8846 324.094 65.3853C324.639 65.886 325.309 66.1364 326.104 66.1364C327.253 66.1364 328.07 65.643 328.556 64.6563H331.892C331.538 65.8345 330.861 66.8064 329.859 67.5722C328.858 68.3233 327.628 68.6988 326.17 68.6988C324.992 68.6988 323.932 68.4411 322.989 67.9257C322.062 67.3955 321.333 66.6518 320.803 65.6946C320.287 64.7373 320.029 63.6328 320.029 62.3811C320.029 61.1146 320.287 60.0027 320.803 59.0455C321.318 58.0882 322.04 57.3519 322.967 56.8365C323.895 56.321 324.963 56.0633 326.17 56.0633C327.334 56.0633 328.372 56.3137 329.285 56.8144C330.213 57.3151 330.927 58.0293 331.428 58.9571C331.943 59.8702 332.201 60.9231 332.201 62.116ZM328.998 61.2324C328.983 60.4371 328.696 59.8039 328.136 59.3326C327.577 58.8467 326.892 58.6037 326.082 58.6037C325.316 58.6037 324.668 58.8393 324.138 59.3106C323.623 59.7671 323.306 60.4077 323.188 61.2324H328.998ZM337.551 58.1619C337.949 57.5139 338.464 57.0058 339.097 56.6377C339.745 56.2695 340.482 56.0854 341.306 56.0854V59.3326H340.489C339.517 59.3326 338.781 59.5609 338.28 60.0174C337.794 60.474 337.551 61.2692 337.551 62.4032V68.5H334.458V56.2621H337.551V58.1619ZM355.097 56.2621L347.52 74.2876H344.229L346.879 68.1907L341.975 56.2621H345.444L348.602 64.811L351.806 56.2621H355.097Z" fill="#003F62"/>
<path d="M217.716 103.663C216.788 103.663 215.944 103.452 215.184 103.03C214.436 102.608 213.845 102.011 213.411 101.239C212.989 100.455 212.778 99.5503 212.778 98.5252C212.778 97.5122 212.995 96.6198 213.429 95.8479C213.875 95.064 214.478 94.4671 215.238 94.057C215.998 93.6349 216.848 93.4239 217.789 93.4239C218.729 93.4239 219.58 93.6349 220.339 94.057C221.099 94.4671 221.696 95.058 222.13 95.8298C222.577 96.6017 222.8 97.5001 222.8 98.5252C222.8 99.5503 222.571 100.455 222.112 101.239C221.666 102.011 221.057 102.608 220.285 103.03C219.513 103.452 218.657 103.663 217.716 103.663ZM217.716 102.216C218.307 102.216 218.862 102.077 219.381 101.8C219.899 101.522 220.315 101.106 220.629 100.551C220.955 99.9966 221.117 99.3212 221.117 98.5252C221.117 97.7293 220.961 97.0539 220.647 96.4992C220.333 95.9444 219.923 95.5344 219.417 95.269C218.91 94.9917 218.362 94.853 217.771 94.853C217.168 94.853 216.613 94.9917 216.106 95.269C215.612 95.5344 215.214 95.9444 214.912 96.4992C214.611 97.0539 214.46 97.7293 214.46 98.5252C214.46 99.3333 214.605 100.015 214.894 100.569C215.196 101.124 215.594 101.54 216.088 101.818C216.583 102.083 217.126 102.216 217.716 102.216ZM229.794 93.4058C231 93.4058 231.977 93.7736 232.725 94.5093C233.473 95.2329 233.846 96.2821 233.846 97.6569V103.5H232.218V97.8921C232.218 96.9032 231.971 96.1494 231.477 95.6308C230.982 95.1002 230.307 94.8349 229.45 94.8349C228.582 94.8349 227.889 95.1062 227.37 95.6489C226.864 96.1916 226.61 96.9816 226.61 98.0187V103.5H224.964V93.5867H226.61V94.9977C226.936 94.4912 227.376 94.0992 227.931 93.8218C228.498 93.5445 229.119 93.4058 229.794 93.4058ZM245.682 103.663C244.753 103.663 243.909 103.452 243.149 103.03C242.401 102.608 241.81 102.011 241.376 101.239C240.954 100.455 240.743 99.5503 240.743 98.5252C240.743 97.5122 240.96 96.6198 241.394 95.8479C241.841 95.064 242.444 94.4671 243.203 94.057C243.963 93.6349 244.813 93.4239 245.754 93.4239C246.695 93.4239 247.545 93.6349 248.305 94.057C249.065 94.4671 249.662 95.058 250.096 95.8298C250.542 96.6017 250.765 97.5001 250.765 98.5252C250.765 99.5503 250.536 100.455 250.078 101.239C249.631 102.011 249.022 102.608 248.251 103.03C247.479 103.452 246.622 103.663 245.682 103.663ZM245.682 102.216C246.273 102.216 246.827 102.077 247.346 101.8C247.865 101.522 248.281 101.106 248.594 100.551C248.92 99.9966 249.083 99.3212 249.083 98.5252C249.083 97.7293 248.926 97.0539 248.612 96.4992C248.299 95.9444 247.889 95.5344 247.382 95.269C246.876 94.9917 246.327 94.853 245.736 94.853C245.133 94.853 244.578 94.9917 244.072 95.269C243.577 95.5344 243.179 95.9444 242.878 96.4992C242.576 97.0539 242.426 97.7293 242.426 98.5252C242.426 99.3333 242.57 100.015 242.86 100.569C243.161 101.124 243.559 101.54 244.054 101.818C244.548 102.083 245.091 102.216 245.682 102.216ZM254.576 95.1967C254.865 94.6299 255.275 94.1897 255.806 93.8761C256.348 93.5626 257.006 93.4058 257.778 93.4058V95.1062H257.343C255.498 95.1062 254.576 96.1072 254.576 98.1092V103.5H252.929V93.5867H254.576V95.1967ZM259.063 98.5072C259.063 97.4941 259.268 96.6077 259.678 95.8479C260.088 95.0761 260.649 94.4791 261.36 94.057C262.084 93.6349 262.892 93.4239 263.784 93.4239C264.556 93.4239 265.274 93.6048 265.937 93.9666C266.6 94.3163 267.107 94.7806 267.457 95.3595V90.1134H269.121V103.5H267.457V101.637C267.131 102.228 266.649 102.716 266.009 103.102C265.37 103.476 264.622 103.663 263.766 103.663C262.886 103.663 262.084 103.446 261.36 103.012C260.649 102.577 260.088 101.968 259.678 101.184C259.268 100.401 259.063 99.5081 259.063 98.5072ZM267.457 98.5252C267.457 97.7775 267.306 97.1263 267.004 96.5715C266.703 96.0168 266.293 95.5947 265.774 95.3052C265.268 95.0037 264.707 94.853 264.092 94.853C263.477 94.853 262.916 94.9977 262.409 95.2871C261.903 95.5766 261.499 95.9987 261.197 96.5534C260.896 97.1082 260.745 97.7594 260.745 98.5072C260.745 99.2669 260.896 99.9302 261.197 100.497C261.499 101.052 261.903 101.48 262.409 101.781C262.916 102.071 263.477 102.216 264.092 102.216C264.707 102.216 265.268 102.071 265.774 101.781C266.293 101.48 266.703 101.052 267.004 100.497C267.306 99.9302 267.457 99.273 267.457 98.5252ZM280.948 98.1634C280.948 98.477 280.93 98.8087 280.894 99.1584H272.97C273.03 100.135 273.362 100.901 273.965 101.456C274.58 101.999 275.322 102.27 276.19 102.27C276.902 102.27 277.493 102.107 277.963 101.781C278.445 101.444 278.783 100.998 278.976 100.443H280.749C280.483 101.396 279.953 102.173 279.157 102.776C278.361 103.367 277.372 103.663 276.19 103.663C275.249 103.663 274.405 103.452 273.658 103.03C272.922 102.608 272.343 102.011 271.921 101.239C271.499 100.455 271.288 99.5503 271.288 98.5252C271.288 97.5001 271.493 96.6017 271.903 95.8298C272.313 95.058 272.886 94.4671 273.621 94.057C274.369 93.6349 275.225 93.4239 276.19 93.4239C277.131 93.4239 277.963 93.6289 278.687 94.0389C279.41 94.449 279.965 95.0158 280.351 95.7394C280.749 96.4509 280.948 97.2589 280.948 98.1634ZM279.247 97.8197C279.247 97.1926 279.109 96.6559 278.831 96.2097C278.554 95.7514 278.174 95.4077 277.692 95.1786C277.221 94.9374 276.697 94.8168 276.118 94.8168C275.286 94.8168 274.574 95.0821 273.983 95.6128C273.404 96.1434 273.073 96.8791 272.988 97.8197H279.247ZM284.767 95.1967C285.056 94.6299 285.466 94.1897 285.997 93.8761C286.54 93.5626 287.197 93.4058 287.969 93.4058V95.1062H287.535C285.689 95.1062 284.767 96.1072 284.767 98.1092V103.5H283.121V93.5867H284.767V95.1967ZM294.077 98.5072C294.077 97.4941 294.282 96.6077 294.692 95.8479C295.102 95.0761 295.663 94.4791 296.374 94.057C297.098 93.6349 297.9 93.4239 298.78 93.4239C299.649 93.4239 300.402 93.6108 301.042 93.9847C301.681 94.3585 302.157 94.8289 302.471 95.3957V93.5867H304.135V103.5H302.471V101.655C302.145 102.234 301.657 102.716 301.005 103.102C300.366 103.476 299.618 103.663 298.762 103.663C297.882 103.663 297.086 103.446 296.374 103.012C295.663 102.577 295.102 101.968 294.692 101.184C294.282 100.401 294.077 99.5081 294.077 98.5072ZM302.471 98.5252C302.471 97.7775 302.32 97.1263 302.018 96.5715C301.717 96.0168 301.307 95.5947 300.788 95.3052C300.282 95.0037 299.721 94.853 299.106 94.853C298.491 94.853 297.93 94.9977 297.424 95.2871C296.917 95.5766 296.513 95.9987 296.211 96.5534C295.91 97.1082 295.759 97.7594 295.759 98.5072C295.759 99.2669 295.91 99.9302 296.211 100.497C296.513 101.052 296.917 101.48 297.424 101.781C297.93 102.071 298.491 102.216 299.106 102.216C299.721 102.216 300.282 102.071 300.788 101.781C301.307 101.48 301.717 101.052 302.018 100.497C302.32 99.9302 302.471 99.273 302.471 98.5252ZM308.563 95.4319C308.901 94.8409 309.395 94.3585 310.046 93.9847C310.698 93.6108 311.439 93.4239 312.271 93.4239C313.164 93.4239 313.966 93.6349 314.677 94.057C315.389 94.4791 315.95 95.0761 316.36 95.8479C316.77 96.6077 316.975 97.4941 316.975 98.5072C316.975 99.5081 316.77 100.401 316.36 101.184C315.95 101.968 315.383 102.577 314.659 103.012C313.948 103.446 313.152 103.663 312.271 103.663C311.415 103.663 310.661 103.476 310.01 103.102C309.371 102.728 308.889 102.252 308.563 101.673V103.5H306.917V90.1134H308.563V95.4319ZM315.292 98.5072C315.292 97.7594 315.142 97.1082 314.84 96.5534C314.539 95.9987 314.129 95.5766 313.61 95.2871C313.104 94.9977 312.543 94.853 311.928 94.853C311.325 94.853 310.764 95.0037 310.245 95.3052C309.739 95.5947 309.329 96.0228 309.015 96.5896C308.714 97.1444 308.563 97.7896 308.563 98.5252C308.563 99.273 308.714 99.9302 309.015 100.497C309.329 101.052 309.739 101.48 310.245 101.781C310.764 102.071 311.325 102.216 311.928 102.216C312.543 102.216 313.104 102.071 313.61 101.781C314.129 101.48 314.539 101.052 314.84 100.497C315.142 99.9302 315.292 99.2669 315.292 98.5072ZM323.465 103.663C322.537 103.663 321.692 103.452 320.933 103.03C320.185 102.608 319.594 102.011 319.16 101.239C318.738 100.455 318.527 99.5503 318.527 98.5252C318.527 97.5122 318.744 96.6198 319.178 95.8479C319.624 95.064 320.227 94.4671 320.987 94.057C321.747 93.6349 322.597 93.4239 323.538 93.4239C324.478 93.4239 325.328 93.6349 326.088 94.057C326.848 94.4671 327.445 95.058 327.879 95.8298C328.325 96.6017 328.549 97.5001 328.549 98.5252C328.549 99.5503 328.319 100.455 327.861 101.239C327.415 102.011 326.806 102.608 326.034 103.03C325.262 103.452 324.406 103.663 323.465 103.663ZM323.465 102.216C324.056 102.216 324.611 102.077 325.129 101.8C325.648 101.522 326.064 101.106 326.378 100.551C326.703 99.9966 326.866 99.3212 326.866 98.5252C326.866 97.7293 326.709 97.0539 326.396 96.4992C326.082 95.9444 325.672 95.5344 325.166 95.269C324.659 94.9917 324.11 94.853 323.519 94.853C322.916 94.853 322.362 94.9917 321.855 95.269C321.361 95.5344 320.963 95.9444 320.661 96.4992C320.36 97.0539 320.209 97.7293 320.209 98.5252C320.209 99.3333 320.354 100.015 320.643 100.569C320.945 101.124 321.343 101.54 321.837 101.818C322.332 102.083 322.874 102.216 323.465 102.216ZM334.403 101.98L337.479 93.5867H339.233L335.344 103.5H333.426L329.537 93.5867H331.31L334.403 101.98ZM349.898 98.1634C349.898 98.477 349.88 98.8087 349.844 99.1584H341.921C341.981 100.135 342.312 100.901 342.915 101.456C343.531 101.999 344.272 102.27 345.141 102.27C345.852 102.27 346.443 102.107 346.913 101.781C347.396 101.444 347.733 100.998 347.926 100.443H349.699C349.434 101.396 348.903 102.173 348.107 102.776C347.311 103.367 346.322 103.663 345.141 103.663C344.2 103.663 343.356 103.452 342.608 103.03C341.872 102.608 341.293 102.011 340.871 101.239C340.449 100.455 340.238 99.5503 340.238 98.5252C340.238 97.5001 340.443 96.6017 340.853 95.8298C341.263 95.058 341.836 94.4671 342.572 94.057C343.32 93.6349 344.176 93.4239 345.141 93.4239C346.081 93.4239 346.913 93.6289 347.637 94.0389C348.361 94.449 348.915 95.0158 349.301 95.7394C349.699 96.4509 349.898 97.2589 349.898 98.1634ZM348.198 97.8197C348.198 97.1926 348.059 96.6559 347.782 96.2097C347.504 95.7514 347.124 95.4077 346.642 95.1786C346.172 94.9374 345.647 94.8168 345.068 94.8168C344.236 94.8168 343.525 95.0821 342.934 95.6128C342.355 96.1434 342.023 96.8791 341.939 97.8197H348.198ZM365.034 100.045C365.034 100.624 364.89 101.178 364.6 101.709C364.311 102.228 363.883 102.662 363.316 103.012C362.761 103.361 362.092 103.56 361.308 103.609V105.074H360.331V103.609C359.234 103.512 358.341 103.162 357.654 102.559C356.966 101.944 356.617 101.166 356.605 100.226H358.359C358.408 100.732 358.594 101.172 358.92 101.546C359.258 101.92 359.728 102.155 360.331 102.252V97.7293C359.523 97.5243 358.872 97.3132 358.377 97.0961C357.883 96.8791 357.461 96.5414 357.111 96.0831C356.761 95.6248 356.586 95.0098 356.586 94.2379C356.586 93.2611 356.924 92.453 357.599 91.8139C358.287 91.1747 359.197 90.8189 360.331 90.7465V89.2451H361.308V90.7465C362.333 90.831 363.159 91.1626 363.786 91.7415C364.413 92.3083 364.775 93.05 364.872 93.9666H363.117C363.057 93.5445 362.87 93.1646 362.556 92.8269C362.243 92.4772 361.827 92.248 361.308 92.1395V96.5534C362.104 96.7585 362.749 96.9695 363.244 97.1866C363.75 97.3916 364.172 97.7233 364.51 98.1815C364.86 98.6398 365.034 99.2609 365.034 100.045ZM358.269 94.1475C358.269 94.7384 358.444 95.1907 358.793 95.5042C359.143 95.8178 359.656 96.0771 360.331 96.2821V92.1033C359.704 92.1636 359.203 92.3686 358.83 92.7184C358.456 93.056 358.269 93.5324 358.269 94.1475ZM361.308 102.27C361.959 102.198 362.466 101.962 362.828 101.564C363.201 101.166 363.388 100.69 363.388 100.135C363.388 99.5443 363.207 99.0921 362.846 98.7785C362.484 98.4529 361.971 98.1936 361.308 98.0006V102.27ZM376.215 91.85H369.866V95.9746C370.143 95.5886 370.553 95.2751 371.096 95.0339C371.639 94.7806 372.224 94.654 372.851 94.654C373.852 94.654 374.666 94.865 375.293 95.2871C375.92 95.6972 376.366 96.2338 376.631 96.8971C376.909 97.5484 377.048 98.2418 377.048 98.9775C377.048 99.8458 376.885 100.624 376.559 101.311C376.233 101.999 375.733 102.541 375.058 102.939C374.394 103.337 373.568 103.536 372.579 103.536C371.313 103.536 370.288 103.211 369.504 102.559C368.72 101.908 368.244 101.04 368.075 99.9544H369.685C369.842 100.642 370.173 101.178 370.68 101.564C371.186 101.95 371.826 102.143 372.597 102.143C373.55 102.143 374.268 101.86 374.75 101.293C375.232 100.714 375.474 99.9544 375.474 99.0137C375.474 98.073 375.232 97.3494 374.75 96.8429C374.268 96.3243 373.556 96.065 372.615 96.065C371.976 96.065 371.415 96.2218 370.933 96.5353C370.463 96.8368 370.119 97.2529 369.902 97.7836H368.346V90.4028H376.215V91.85ZM379.235 96.8248C379.235 94.7505 379.573 93.1344 380.248 91.9767C380.924 90.8068 382.105 90.2219 383.794 90.2219C385.47 90.2219 386.646 90.8068 387.321 91.9767C387.997 93.1344 388.334 94.7505 388.334 96.8248C388.334 98.9353 387.997 100.575 387.321 101.745C386.646 102.915 385.47 103.5 383.794 103.5C382.105 103.5 380.924 102.915 380.248 101.745C379.573 100.575 379.235 98.9353 379.235 96.8248ZM386.706 96.8248C386.706 95.7756 386.634 94.8892 386.489 94.1656C386.357 93.4299 386.073 92.839 385.639 92.3927C385.217 91.9465 384.602 91.7234 383.794 91.7234C382.974 91.7234 382.347 91.9465 381.912 92.3927C381.49 92.839 381.207 93.4299 381.062 94.1656C380.93 94.8892 380.863 95.7756 380.863 96.8248C380.863 97.9102 380.93 98.8207 381.062 99.5564C381.207 100.292 381.49 100.883 381.912 101.329C382.347 101.775 382.974 101.999 383.794 101.999C384.602 101.999 385.217 101.775 385.639 101.329C386.073 100.883 386.357 100.292 386.489 99.5564C386.634 98.8207 386.706 97.9102 386.706 96.8248ZM392.566 101.221L390.54 106.087H389.437L390.757 101.221H392.566ZM394.181 96.8248C394.181 94.7505 394.518 93.1344 395.194 91.9767C395.869 90.8068 397.051 90.2219 398.739 90.2219C400.416 90.2219 401.591 90.8068 402.267 91.9767C402.942 93.1344 403.28 94.7505 403.28 96.8248C403.28 98.9353 402.942 100.575 402.267 101.745C401.591 102.915 400.416 103.5 398.739 103.5C397.051 103.5 395.869 102.915 395.194 101.745C394.518 100.575 394.181 98.9353 394.181 96.8248ZM401.652 96.8248C401.652 95.7756 401.579 94.8892 401.435 94.1656C401.302 93.4299 401.019 92.839 400.584 92.3927C400.162 91.9465 399.547 91.7234 398.739 91.7234C397.919 91.7234 397.292 91.9465 396.858 92.3927C396.436 92.839 396.152 93.4299 396.008 94.1656C395.875 94.8892 395.809 95.7756 395.809 96.8248C395.809 97.9102 395.875 98.8207 396.008 99.5564C396.152 100.292 396.436 100.883 396.858 101.329C397.292 101.775 397.919 101.999 398.739 101.999C399.547 101.999 400.162 101.775 400.584 101.329C401.019 100.883 401.302 100.292 401.435 99.5564C401.579 98.8207 401.652 97.9102 401.652 96.8248ZM405.54 96.8248C405.54 94.7505 405.878 93.1344 406.553 91.9767C407.228 90.8068 408.41 90.2219 410.099 90.2219C411.775 90.2219 412.951 90.8068 413.626 91.9767C414.301 93.1344 414.639 94.7505 414.639 96.8248C414.639 98.9353 414.301 100.575 413.626 101.745C412.951 102.915 411.775 103.5 410.099 103.5C408.41 103.5 407.228 102.915 406.553 101.745C405.878 100.575 405.54 98.9353 405.54 96.8248ZM413.011 96.8248C413.011 95.7756 412.939 94.8892 412.794 94.1656C412.661 93.4299 412.378 92.839 411.944 92.3927C411.522 91.9465 410.907 91.7234 410.099 91.7234C409.278 91.7234 408.651 91.9465 408.217 92.3927C407.795 92.839 407.512 93.4299 407.367 94.1656C407.234 94.8892 407.168 95.7756 407.168 96.8248C407.168 97.9102 407.234 98.8207 407.367 99.5564C407.512 100.292 407.795 100.883 408.217 101.329C408.651 101.775 409.278 101.999 410.099 101.999C410.907 101.999 411.522 101.775 411.944 101.329C412.378 100.883 412.661 100.292 412.794 99.5564C412.939 98.8207 413.011 97.9102 413.011 96.8248Z" fill="#003F62"/>
<path d="M567.458 105.417H539.542C538.397 105.417 537.448 104.468 537.448 103.323C537.448 102.178 538.397 101.229 539.542 101.229H567.458C568.603 101.229 569.552 102.178 569.552 103.323C569.552 104.468 568.603 105.417 567.458 105.417Z" fill="#EDA415"/>
<path d="M576.81 59.4101L565.644 67.3942C564.164 68.4551 562.043 67.813 561.4 66.1101L556.124 52.0401C555.231 49.6113 551.797 49.6113 550.904 52.0401L545.6 66.0822C544.958 67.813 542.864 68.4551 541.384 67.3663L530.218 59.3822C527.984 57.8188 525.025 60.0242 525.946 62.6205L537.56 95.1434C537.95 96.2601 539.011 96.9859 540.184 96.9859H566.788C567.961 96.9859 569.022 96.2321 569.413 95.1434L581.026 62.6205C581.975 60.0242 579.016 57.8188 576.81 59.4101ZM560.479 85.1772H546.521C545.376 85.1772 544.427 84.228 544.427 83.0834C544.427 81.9388 545.376 80.9897 546.521 80.9897H560.479C561.624 80.9897 562.573 81.9388 562.573 83.0834C562.573 84.228 561.624 85.1772 560.479 85.1772Z" fill="#EDA415"/>
<path d="M628.272 60.5918C629.141 60.7538 629.855 61.1882 630.415 61.8951C630.974 62.602 631.254 63.4119 631.254 64.325C631.254 65.1497 631.048 65.8787 630.635 66.5119C630.238 67.1304 629.656 67.6164 628.89 67.9698C628.125 68.3233 627.219 68.5 626.173 68.5H619.524V53.0812H625.886C626.932 53.0812 627.83 53.2505 628.581 53.5892C629.347 53.928 629.921 54.3992 630.304 55.003C630.702 55.6068 630.901 56.2916 630.901 57.0574C630.901 57.9557 630.658 58.7068 630.172 59.3106C629.7 59.9144 629.067 60.3414 628.272 60.5918ZM622.617 59.4431H625.444C626.181 59.4431 626.748 59.2811 627.145 58.9571C627.543 58.6184 627.742 58.1398 627.742 57.5213C627.742 56.9027 627.543 56.4241 627.145 56.0854C626.748 55.7467 626.181 55.5773 625.444 55.5773H622.617V59.4431ZM625.732 65.9817C626.483 65.9817 627.064 65.805 627.477 65.4516C627.904 65.0981 628.117 64.5974 628.117 63.9495C628.117 63.2868 627.896 62.7713 627.455 62.4032C627.013 62.0203 626.416 61.8288 625.665 61.8288H622.617V65.9817H625.732ZM645.095 62.116C645.095 62.5578 645.066 62.9554 645.007 63.3088H636.06C636.134 64.1924 636.443 64.8846 636.988 65.3853C637.533 65.886 638.203 66.1364 638.998 66.1364C640.147 66.1364 640.964 65.643 641.45 64.6563H644.786C644.432 65.8345 643.755 66.8064 642.754 67.5722C641.752 68.3233 640.522 68.6988 639.065 68.6988C637.886 68.6988 636.826 68.4411 635.884 67.9257C634.956 67.3955 634.227 66.6518 633.697 65.6946C633.181 64.7373 632.924 63.6328 632.924 62.3811C632.924 61.1146 633.181 60.0027 633.697 59.0455C634.212 58.0882 634.934 57.3519 635.861 56.8365C636.789 56.321 637.857 56.0633 639.065 56.0633C640.228 56.0633 641.266 56.3137 642.179 56.8144C643.107 57.3151 643.821 58.0293 644.322 58.9571C644.837 59.8702 645.095 60.9231 645.095 62.116ZM641.892 61.2324C641.877 60.4371 641.59 59.8039 641.031 59.3326C640.471 58.8467 639.786 58.6037 638.976 58.6037C638.21 58.6037 637.562 58.8393 637.032 59.3106C636.517 59.7671 636.2 60.4077 636.082 61.2324H641.892ZM652.036 68.6988C651.034 68.6988 650.136 68.5221 649.341 68.1686C648.545 67.8005 647.912 67.3071 647.441 66.6886C646.984 66.0701 646.734 65.3853 646.69 64.6342H649.804C649.863 65.1055 650.092 65.4958 650.489 65.805C650.902 66.1143 651.41 66.2689 652.013 66.2689C652.602 66.2689 653.059 66.1511 653.383 65.9155C653.722 65.6798 653.891 65.3779 653.891 65.0098C653.891 64.6122 653.685 64.3176 653.273 64.1262C652.875 63.92 652.234 63.6991 651.351 63.4635C650.438 63.2426 649.687 63.0143 649.098 62.7787C648.523 62.5431 648.022 62.1823 647.595 61.6963C647.183 61.2103 646.977 60.555 646.977 59.7303C646.977 59.0528 647.168 58.4343 647.551 57.8747C647.949 57.3151 648.508 56.8733 649.23 56.5493C649.966 56.2253 650.828 56.0633 651.815 56.0633C653.273 56.0633 654.436 56.4315 655.305 57.1678C656.174 57.8894 656.652 58.8688 656.741 60.1058H653.781C653.736 59.6198 653.53 59.2369 653.162 58.9571C652.809 58.6626 652.33 58.5153 651.726 58.5153C651.167 58.5153 650.732 58.6184 650.423 58.8246C650.128 59.0308 649.981 59.3179 649.981 59.6861C649.981 60.0984 650.187 60.4151 650.6 60.636C651.012 60.8421 651.653 61.0557 652.521 61.2766C653.405 61.4975 654.134 61.7257 654.708 61.9614C655.283 62.197 655.776 62.5652 656.188 63.0659C656.616 63.5518 656.836 64.1998 656.851 65.0098C656.851 65.7167 656.652 66.3499 656.255 66.9095C655.872 67.4691 655.312 67.9109 654.576 68.2349C653.854 68.5442 653.007 68.6988 652.036 68.6988ZM662.99 58.8025V64.7226C662.99 65.135 663.086 65.4369 663.278 65.6283C663.484 65.805 663.822 65.8934 664.294 65.8934H665.73V68.5H663.786C661.179 68.5 659.876 67.2335 659.876 64.7005V58.8025H658.418V56.2621H659.876V53.2358H662.99V56.2621H665.73V58.8025H662.99ZM672.422 62.359C672.422 61.1367 672.673 60.0543 673.173 59.1117C673.689 58.1545 674.381 57.4108 675.25 56.8807C676.119 56.3505 677.076 56.0854 678.122 56.0854C678.99 56.0854 679.756 56.2548 680.419 56.5935C681.096 56.9175 681.641 57.3372 682.054 57.8526V56.2621H685.168V74.3318H682.054V66.8212C681.641 67.3513 681.089 67.7931 680.397 68.1466C679.705 68.5 678.924 68.6767 678.055 68.6767C677.024 68.6767 676.075 68.4116 675.206 67.8815C674.352 67.3366 673.674 66.5855 673.173 65.6283C672.673 64.6711 672.422 63.5813 672.422 62.359ZM682.054 62.3811C682.054 61.63 681.899 60.982 681.59 60.4371C681.28 59.8923 680.875 59.4799 680.375 59.2001C679.889 58.9203 679.366 58.7804 678.806 58.7804C678.261 58.7804 677.739 58.9203 677.238 59.2001C676.752 59.4799 676.354 59.8923 676.045 60.4371C675.736 60.9673 675.581 61.6079 675.581 62.359C675.581 63.11 675.736 63.7654 676.045 64.325C676.354 64.8699 676.752 65.2822 677.238 65.562C677.739 65.8418 678.261 65.9817 678.806 65.9817C679.366 65.9817 679.889 65.8418 680.375 65.562C680.875 65.2822 681.28 64.8699 681.59 64.325C681.899 63.7801 682.054 63.1321 682.054 62.3811ZM699.742 56.2621V68.5H696.627V66.9537C696.229 67.4839 695.707 67.9036 695.059 68.2128C694.425 68.5074 693.733 68.6546 692.982 68.6546C692.025 68.6546 691.178 68.4558 690.442 68.0582C689.706 67.6459 689.124 67.0494 688.697 66.2689C688.284 65.4737 688.078 64.5312 688.078 63.4414V56.2621H691.171V62.9996C691.171 63.9715 691.414 64.7226 691.9 65.2528C692.386 65.7682 693.049 66.0259 693.888 66.0259C694.742 66.0259 695.412 65.7682 695.898 65.2528C696.384 64.7226 696.627 63.9715 696.627 62.9996V56.2621H699.742ZM701.998 62.3369C701.998 61.0998 702.241 60.0027 702.727 59.0455C703.228 58.0882 703.898 57.3519 704.737 56.8365C705.591 56.321 706.541 56.0633 707.587 56.0633C708.5 56.0633 709.295 56.2474 709.972 56.6156C710.665 56.9837 711.217 57.4476 711.629 58.0072V56.2621H714.744V68.5H711.629V66.7107C711.232 67.285 710.679 67.7637 709.972 68.1466C709.28 68.5147 708.478 68.6988 707.565 68.6988C706.534 68.6988 705.591 68.4337 704.737 67.9036C703.898 67.3734 703.228 66.6297 702.727 65.6725C702.241 64.7005 701.998 63.5887 701.998 62.3369ZM711.629 62.3811C711.629 61.63 711.482 60.9894 711.187 60.4592C710.893 59.9144 710.495 59.502 709.994 59.2222C709.494 58.9277 708.956 58.7804 708.382 58.7804C707.808 58.7804 707.277 58.9203 706.791 59.2001C706.305 59.4799 705.908 59.8923 705.599 60.4371C705.304 60.9673 705.157 61.6006 705.157 62.3369C705.157 63.0732 705.304 63.7212 705.599 64.2808C705.908 64.8257 706.305 65.2454 706.791 65.5399C707.292 65.8345 707.822 65.9817 708.382 65.9817C708.956 65.9817 709.494 65.8418 709.994 65.562C710.495 65.2675 710.893 64.8551 711.187 64.325C711.482 63.7801 711.629 63.1321 711.629 62.3811ZM720.857 52.1534V68.5H717.764V52.1534H720.857ZM725.481 54.8042C724.936 54.8042 724.479 54.6348 724.111 54.2961C723.758 53.9427 723.581 53.5083 723.581 52.9928C723.581 52.4774 723.758 52.0503 724.111 51.7116C724.479 51.3582 724.936 51.1814 725.481 51.1814C726.026 51.1814 726.475 51.3582 726.828 51.7116C727.196 52.0503 727.381 52.4774 727.381 52.9928C727.381 53.5083 727.196 53.9427 726.828 54.2961C726.475 54.6348 726.026 54.8042 725.481 54.8042ZM727.005 56.2621V68.5H723.912V56.2621H727.005ZM733.661 58.8025V64.7226C733.661 65.135 733.757 65.4369 733.948 65.6283C734.155 65.805 734.493 65.8934 734.964 65.8934H736.4V68.5H734.456C731.85 68.5 730.546 67.2335 730.546 64.7005V58.8025H729.089V56.2621H730.546V53.2358H733.661V56.2621H736.4V58.8025H733.661ZM750.332 56.2621L742.756 74.2876H739.464L742.115 68.1907L737.211 56.2621H740.679L743.838 64.811L747.041 56.2621H750.332Z" fill="#003F62"/>
<path d="M621.039 95.4319C621.377 94.8409 621.871 94.3585 622.523 93.9847C623.174 93.6108 623.915 93.4239 624.748 93.4239C625.64 93.4239 626.442 93.6349 627.154 94.057C627.865 94.4791 628.426 95.0761 628.836 95.8479C629.246 96.6077 629.451 97.4941 629.451 98.5072C629.451 99.5081 629.246 100.401 628.836 101.184C628.426 101.968 627.859 102.577 627.135 103.012C626.424 103.446 625.628 103.663 624.748 103.663C623.891 103.663 623.138 103.476 622.486 103.102C621.847 102.728 621.365 102.252 621.039 101.673V103.5H619.393V90.1134H621.039V95.4319ZM627.769 98.5072C627.769 97.7594 627.618 97.1082 627.316 96.5534C627.015 95.9987 626.605 95.5766 626.086 95.2871C625.58 94.9977 625.019 94.853 624.404 94.853C623.801 94.853 623.24 95.0037 622.721 95.3052C622.215 95.5947 621.805 96.0228 621.491 96.5896C621.19 97.1444 621.039 97.7896 621.039 98.5252C621.039 99.273 621.19 99.9302 621.491 100.497C621.805 101.052 622.215 101.48 622.721 101.781C623.24 102.071 623.801 102.216 624.404 102.216C625.019 102.216 625.58 102.071 626.086 101.781C626.605 101.48 627.015 101.052 627.316 100.497C627.618 99.9302 627.769 99.2669 627.769 98.5072ZM640.663 98.1634C640.663 98.477 640.645 98.8087 640.609 99.1584H632.685C632.745 100.135 633.077 100.901 633.68 101.456C634.295 101.999 635.037 102.27 635.905 102.27C636.617 102.27 637.208 102.107 637.678 101.781C638.16 101.444 638.498 100.998 638.691 100.443H640.464C640.199 101.396 639.668 102.173 638.872 102.776C638.076 103.367 637.087 103.663 635.905 103.663C634.964 103.663 634.12 103.452 633.373 103.03C632.637 102.608 632.058 102.011 631.636 101.239C631.214 100.455 631.003 99.5503 631.003 98.5252C631.003 97.5001 631.208 96.6017 631.618 95.8298C632.028 95.058 632.601 94.4671 633.336 94.057C634.084 93.6349 634.94 93.4239 635.905 93.4239C636.846 93.4239 637.678 93.6289 638.402 94.0389C639.125 94.449 639.68 95.0158 640.066 95.7394C640.464 96.4509 640.663 97.2589 640.663 98.1634ZM638.962 97.8197C638.962 97.1926 638.824 96.6559 638.546 96.2097C638.269 95.7514 637.889 95.4077 637.407 95.1786C636.936 94.9374 636.412 94.8168 635.833 94.8168C635.001 94.8168 634.289 95.0821 633.698 95.6128C633.119 96.1434 632.788 96.8791 632.703 97.8197H638.962ZM646.345 103.663C645.585 103.663 644.904 103.536 644.301 103.283C643.698 103.018 643.222 102.656 642.872 102.198C642.522 101.727 642.329 101.191 642.293 100.588H643.993C644.042 101.082 644.271 101.486 644.681 101.8C645.103 102.113 645.652 102.27 646.327 102.27C646.954 102.27 647.449 102.131 647.81 101.854C648.172 101.576 648.353 101.227 648.353 100.805C648.353 100.37 648.16 100.051 647.774 99.8458C647.388 99.6287 646.791 99.4177 645.983 99.2127C645.248 99.0197 644.645 98.8267 644.174 98.6338C643.716 98.4288 643.318 98.1333 642.98 97.7474C642.655 97.3494 642.492 96.8308 642.492 96.1916C642.492 95.6851 642.643 95.2208 642.944 94.7987C643.246 94.3766 643.674 94.045 644.229 93.8038C644.783 93.5505 645.417 93.4239 646.128 93.4239C647.226 93.4239 648.112 93.7012 648.787 94.256C649.463 94.8108 649.825 95.5705 649.873 96.5353H648.227C648.19 96.0168 647.979 95.6007 647.593 95.2871C647.22 94.9736 646.713 94.8168 646.074 94.8168C645.483 94.8168 645.013 94.9434 644.663 95.1967C644.313 95.4499 644.138 95.7816 644.138 96.1916C644.138 96.5173 644.241 96.7886 644.446 97.0057C644.663 97.2107 644.928 97.3795 645.242 97.5122C645.567 97.6328 646.014 97.7715 646.58 97.9283C647.292 98.1212 647.871 98.3142 648.317 98.5072C648.763 98.6881 649.143 98.9654 649.457 99.3393C649.782 99.7132 649.951 100.202 649.963 100.805C649.963 101.347 649.812 101.836 649.511 102.27C649.209 102.704 648.781 103.048 648.227 103.301C647.684 103.542 647.057 103.663 646.345 103.663ZM654.295 94.9434V100.786C654.295 101.269 654.398 101.613 654.603 101.818C654.808 102.011 655.163 102.107 655.67 102.107H656.882V103.5H655.399C654.482 103.5 653.795 103.289 653.336 102.867C652.878 102.445 652.649 101.751 652.649 100.786V94.9434H651.364V93.5867H652.649V91.0903H654.295V93.5867H656.882V94.9434H654.295ZM663.084 98.5072C663.084 97.4941 663.289 96.6077 663.699 95.8479C664.109 95.0761 664.67 94.4791 665.382 94.057C666.105 93.6349 666.913 93.4239 667.806 93.4239C668.662 93.4239 669.41 93.6168 670.049 94.0027C670.7 94.3766 671.176 94.8409 671.478 95.3957V93.5867H673.142V108.203H671.478V101.673C671.164 102.228 670.682 102.698 670.031 103.084C669.38 103.47 668.62 103.663 667.751 103.663C666.883 103.663 666.093 103.446 665.382 103.012C664.67 102.577 664.109 101.968 663.699 101.184C663.289 100.401 663.084 99.5081 663.084 98.5072ZM671.478 98.5252C671.478 97.7775 671.327 97.1263 671.026 96.5715C670.724 96.0168 670.314 95.5947 669.796 95.3052C669.289 95.0037 668.728 94.853 668.113 94.853C667.498 94.853 666.937 94.9977 666.431 95.2871C665.924 95.5766 665.52 95.9987 665.219 96.5534C664.917 97.1082 664.767 97.7594 664.767 98.5072C664.767 99.2669 664.917 99.9302 665.219 100.497C665.52 101.052 665.924 101.48 666.431 101.781C666.937 102.071 667.498 102.216 668.113 102.216C668.728 102.216 669.289 102.071 669.796 101.781C670.314 101.48 670.724 101.052 671.026 100.497C671.327 99.9302 671.478 99.273 671.478 98.5252ZM684.716 93.5867V103.5H683.07V102.035C682.756 102.541 682.316 102.939 681.749 103.229C681.194 103.506 680.579 103.645 679.904 103.645C679.132 103.645 678.439 103.488 677.824 103.174C677.209 102.849 676.72 102.366 676.358 101.727C676.009 101.088 675.834 100.31 675.834 99.3936V93.5867H677.462V99.1765C677.462 100.153 677.709 100.907 678.204 101.438C678.698 101.956 679.373 102.216 680.23 102.216C681.11 102.216 681.803 101.944 682.31 101.402C682.816 100.859 683.07 100.069 683.07 99.0318V93.5867H684.716ZM686.88 98.5072C686.88 97.4941 687.085 96.6077 687.495 95.8479C687.905 95.0761 688.466 94.4791 689.178 94.057C689.901 93.6349 690.703 93.4239 691.584 93.4239C692.452 93.4239 693.206 93.6108 693.845 93.9847C694.484 94.3585 694.961 94.8289 695.274 95.3957V93.5867H696.938V103.5H695.274V101.655C694.949 102.234 694.46 102.716 693.809 103.102C693.17 103.476 692.422 103.663 691.566 103.663C690.685 103.663 689.889 103.446 689.178 103.012C688.466 102.577 687.905 101.968 687.495 101.184C687.085 100.401 686.88 99.5081 686.88 98.5072ZM695.274 98.5252C695.274 97.7775 695.123 97.1263 694.822 96.5715C694.52 96.0168 694.11 95.5947 693.592 95.3052C693.085 95.0037 692.524 94.853 691.909 94.853C691.294 94.853 690.734 94.9977 690.227 95.2871C689.72 95.5766 689.316 95.9987 689.015 96.5534C688.713 97.1082 688.563 97.7594 688.563 98.5072C688.563 99.2669 688.713 99.9302 689.015 100.497C689.316 101.052 689.72 101.48 690.227 101.781C690.734 102.071 691.294 102.216 691.909 102.216C692.524 102.216 693.085 102.071 693.592 101.781C694.11 101.48 694.52 101.052 694.822 100.497C695.123 99.9302 695.274 99.273 695.274 98.5252ZM701.366 90.1134V103.5H699.72V90.1134H701.366ZM705.022 91.9767C704.709 91.9767 704.443 91.8681 704.226 91.651C704.009 91.434 703.901 91.1686 703.901 90.8551C703.901 90.5415 704.009 90.2762 704.226 90.0591C704.443 89.842 704.709 89.7335 705.022 89.7335C705.324 89.7335 705.577 89.842 705.782 90.0591C705.999 90.2762 706.108 90.5415 706.108 90.8551C706.108 91.1686 705.999 91.434 705.782 91.651C705.577 91.8681 705.324 91.9767 705.022 91.9767ZM705.818 93.5867V103.5H704.172V93.5867H705.818ZM710.632 94.9434V100.786C710.632 101.269 710.734 101.613 710.939 101.818C711.145 102.011 711.5 102.107 712.007 102.107H713.219V103.5H711.735C710.819 103.5 710.131 103.289 709.673 102.867C709.215 102.445 708.986 101.751 708.986 100.786V94.9434H707.701V93.5867H708.986V91.0903H710.632V93.5867H713.219V94.9434H710.632ZM723.752 93.5867L717.782 108.167H716.082L718.035 103.391L714.038 93.5867H715.865L718.976 101.619L722.051 93.5867H723.752ZM731.08 91.9767C730.766 91.9767 730.501 91.8681 730.284 91.651C730.067 91.434 729.958 91.1686 729.958 90.8551C729.958 90.5415 730.067 90.2762 730.284 90.0591C730.501 89.842 730.766 89.7335 731.08 89.7335C731.381 89.7335 731.635 89.842 731.84 90.0591C732.057 90.2762 732.165 90.5415 732.165 90.8551C732.165 91.1686 732.057 91.434 731.84 91.651C731.635 91.8681 731.381 91.9767 731.08 91.9767ZM731.876 93.5867V103.5H730.23V93.5867H731.876ZM739.511 93.4058C740.717 93.4058 741.694 93.7736 742.442 94.5093C743.19 95.2329 743.564 96.2821 743.564 97.6569V103.5H741.935V97.8921C741.935 96.9032 741.688 96.1494 741.194 95.6308C740.699 95.1002 740.024 94.8349 739.168 94.8349C738.299 94.8349 737.606 95.1062 737.087 95.6489C736.581 96.1916 736.328 96.9816 736.328 98.0187V103.5H734.681V93.5867H736.328V94.9977C736.653 94.4912 737.093 94.0992 737.648 93.8218C738.215 93.5445 738.836 93.4058 739.511 93.4058ZM752.722 90.1134V103.5H751.075V90.1134H752.722ZM759.851 103.663C758.922 103.663 758.078 103.452 757.318 103.03C756.57 102.608 755.98 102.011 755.545 101.239C755.123 100.455 754.912 99.5503 754.912 98.5252C754.912 97.5122 755.129 96.6198 755.563 95.8479C756.01 95.064 756.613 94.4671 757.372 94.057C758.132 93.6349 758.982 93.4239 759.923 93.4239C760.864 93.4239 761.714 93.6349 762.474 94.057C763.234 94.4671 763.831 95.058 764.265 95.8298C764.711 96.6017 764.934 97.5001 764.934 98.5252C764.934 99.5503 764.705 100.455 764.247 101.239C763.8 102.011 763.191 102.608 762.42 103.03C761.648 103.452 760.791 103.663 759.851 103.663ZM759.851 102.216C760.442 102.216 760.996 102.077 761.515 101.8C762.034 101.522 762.45 101.106 762.763 100.551C763.089 99.9966 763.252 99.3212 763.252 98.5252C763.252 97.7293 763.095 97.0539 762.781 96.4992C762.468 95.9444 762.058 95.5344 761.551 95.269C761.045 94.9917 760.496 94.853 759.905 94.853C759.302 94.853 758.747 94.9917 758.241 95.269C757.746 95.5344 757.348 95.9444 757.047 96.4992C756.745 97.0539 756.595 97.7293 756.595 98.5252C756.595 99.3333 756.739 100.015 757.029 100.569C757.33 101.124 757.728 101.54 758.223 101.818C758.717 102.083 759.26 102.216 759.851 102.216ZM780.304 93.5867L777.211 103.5H775.51L773.122 95.6308L770.735 103.5H769.034L765.923 93.5867H767.605L769.884 101.908L772.345 93.5867H774.027L776.433 101.926L778.676 93.5867H780.304ZM788.407 95.4138C788.733 94.8469 789.215 94.3766 789.854 94.0027C790.505 93.6168 791.259 93.4239 792.115 93.4239C792.996 93.4239 793.792 93.6349 794.503 94.057C795.227 94.4791 795.794 95.0761 796.204 95.8479C796.614 96.6077 796.819 97.4941 796.819 98.5072C796.819 99.5081 796.614 100.401 796.204 101.184C795.794 101.968 795.227 102.577 794.503 103.012C793.792 103.446 792.996 103.663 792.115 103.663C791.271 103.663 790.523 103.476 789.872 103.102C789.233 102.716 788.745 102.24 788.407 101.673V108.203H786.761V93.5867H788.407V95.4138ZM795.136 98.5072C795.136 97.7594 794.986 97.1082 794.684 96.5534C794.383 95.9987 793.973 95.5766 793.454 95.2871C792.948 94.9977 792.387 94.853 791.772 94.853C791.169 94.853 790.608 95.0037 790.089 95.3052C789.583 95.5947 789.173 96.0228 788.859 96.5896C788.558 97.1444 788.407 97.7896 788.407 98.5252C788.407 99.273 788.558 99.9302 788.859 100.497C789.173 101.052 789.583 101.48 790.089 101.781C790.608 102.071 791.169 102.216 791.772 102.216C792.387 102.216 792.948 102.071 793.454 101.781C793.973 101.48 794.383 101.052 794.684 100.497C794.986 99.9302 795.136 99.2669 795.136 98.5072ZM800.632 95.1967C800.921 94.6299 801.331 94.1897 801.862 93.8761C802.405 93.5626 803.062 93.4058 803.834 93.4058V95.1062H803.4C801.554 95.1062 800.632 96.1072 800.632 98.1092V103.5H798.986V93.5867H800.632V95.1967ZM806.584 91.9767C806.271 91.9767 806.005 91.8681 805.788 91.651C805.571 91.434 805.463 91.1686 805.463 90.8551C805.463 90.5415 805.571 90.2762 805.788 90.0591C806.005 89.842 806.271 89.7335 806.584 89.7335C806.886 89.7335 807.139 89.842 807.344 90.0591C807.561 90.2762 807.67 90.5415 807.67 90.8551C807.67 91.1686 807.561 91.434 807.344 91.651C807.139 91.8681 806.886 91.9767 806.584 91.9767ZM807.38 93.5867V103.5H805.734V93.5867H807.38ZM809.571 98.5252C809.571 97.5001 809.776 96.6077 810.186 95.8479C810.596 95.0761 811.163 94.4791 811.886 94.057C812.622 93.6349 813.46 93.4239 814.401 93.4239C815.619 93.4239 816.62 93.7193 817.404 94.3103C818.2 94.9012 818.724 95.7213 818.978 96.7705H817.205C817.036 96.1675 816.704 95.6911 816.21 95.3414C815.727 94.9917 815.124 94.8168 814.401 94.8168C813.46 94.8168 812.7 95.1424 812.122 95.7937C811.543 96.4328 811.253 97.3434 811.253 98.5252C811.253 99.7192 811.543 100.642 812.122 101.293C812.7 101.944 813.46 102.27 814.401 102.27C815.124 102.27 815.727 102.101 816.21 101.763C816.692 101.426 817.024 100.943 817.205 100.316H818.978C818.712 101.329 818.182 102.143 817.386 102.758C816.59 103.361 815.595 103.663 814.401 103.663C813.46 103.663 812.622 103.452 811.886 103.03C811.163 102.608 810.596 102.011 810.186 101.239C809.776 100.467 809.571 99.5624 809.571 98.5252ZM830.219 98.1634C830.219 98.477 830.201 98.8087 830.165 99.1584H822.241C822.302 100.135 822.633 100.901 823.236 101.456C823.851 101.999 824.593 102.27 825.461 102.27C826.173 102.27 826.764 102.107 827.234 101.781C827.717 101.444 828.054 100.998 828.247 100.443H830.02C829.755 101.396 829.224 102.173 828.428 102.776C827.632 103.367 826.643 103.663 825.461 103.663C824.521 103.663 823.677 103.452 822.929 103.03C822.193 102.608 821.614 102.011 821.192 101.239C820.77 100.455 820.559 99.5503 820.559 98.5252C820.559 97.5001 820.764 96.6017 821.174 95.8298C821.584 95.058 822.157 94.4671 822.893 94.057C823.64 93.6349 824.497 93.4239 825.461 93.4239C826.402 93.4239 827.234 93.6289 827.958 94.0389C828.682 94.449 829.236 95.0158 829.622 95.7394C830.02 96.4509 830.219 97.2589 830.219 98.1634ZM828.519 97.8197C828.519 97.1926 828.38 96.6559 828.103 96.2097C827.825 95.7514 827.445 95.4077 826.963 95.1786C826.493 94.9374 825.968 94.8168 825.389 94.8168C824.557 94.8168 823.845 95.0821 823.255 95.6128C822.676 96.1434 822.344 96.8791 822.26 97.8197H828.519Z" fill="#003F62"/>
<path d="M986.758 55.6412L971.403 49.8904C969.812 49.3041 967.216 49.3041 965.625 49.8904L950.27 55.6412C947.311 56.7579 944.91 60.2195 944.91 63.3741V85.9866C944.91 88.2479 946.39 91.235 948.205 92.575L963.559 104.049C966.267 106.087 970.705 106.087 973.413 104.049L988.768 92.575C990.582 91.207 992.062 88.2479 992.062 85.9866V63.3741C992.09 60.2195 989.689 56.7579 986.758 55.6412ZM970.594 79.9287V87.2708C970.594 88.4154 969.645 89.3645 968.5 89.3645C967.355 89.3645 966.406 88.4154 966.406 87.2708V79.9287C963.587 79.0354 961.521 76.4112 961.521 73.3125C961.521 69.46 964.648 66.3333 968.5 66.3333C972.353 66.3333 975.479 69.46 975.479 73.3125C975.479 76.4391 973.413 79.0354 970.594 79.9287Z" fill="#EDA415"/>
<path d="M1033.8 55.246V52.3964H1039.12V68.5H1035.94V55.246H1033.8ZM1059.5 56.2621L1051.92 74.2876H1048.63L1051.28 68.1907L1046.38 56.2621H1049.85L1053 64.811L1056.21 56.2621H1059.5ZM1072.54 62.116C1072.54 62.5578 1072.51 62.9554 1072.45 63.3088H1063.51C1063.58 64.1924 1063.89 64.8846 1064.44 65.3853C1064.98 65.886 1065.65 66.1364 1066.45 66.1364C1067.59 66.1364 1068.41 65.643 1068.9 64.6563H1072.23C1071.88 65.8345 1071.2 66.8064 1070.2 67.5722C1069.2 68.3233 1067.97 68.6988 1066.51 68.6988C1065.33 68.6988 1064.27 68.4411 1063.33 67.9257C1062.4 67.3955 1061.67 66.6518 1061.14 65.6946C1060.63 64.7373 1060.37 63.6328 1060.37 62.3811C1060.37 61.1146 1060.63 60.0027 1061.14 59.0455C1061.66 58.0882 1062.38 57.3519 1063.31 56.8365C1064.24 56.321 1065.3 56.0633 1066.51 56.0633C1067.68 56.0633 1068.71 56.3137 1069.63 56.8144C1070.55 57.3151 1071.27 58.0293 1071.77 58.9571C1072.28 59.8702 1072.54 60.9231 1072.54 62.116ZM1069.34 61.2324C1069.32 60.4371 1069.04 59.8039 1068.48 59.3326C1067.92 58.8467 1067.23 58.6037 1066.42 58.6037C1065.66 58.6037 1065.01 58.8393 1064.48 59.3106C1063.96 59.7671 1063.65 60.4077 1063.53 61.2324H1069.34ZM1074 62.3369C1074 61.0998 1074.25 60.0027 1074.73 59.0455C1075.23 58.0882 1075.9 57.3519 1076.74 56.8365C1077.6 56.321 1078.55 56.0633 1079.59 56.0633C1080.51 56.0633 1081.3 56.2474 1081.98 56.6156C1082.67 56.9837 1083.22 57.4476 1083.64 58.0072V56.2621H1086.75V68.5H1083.64V66.7107C1083.24 67.285 1082.69 67.7637 1081.98 68.1466C1081.29 68.5147 1080.48 68.6988 1079.57 68.6988C1078.54 68.6988 1077.6 68.4337 1076.74 67.9036C1075.9 67.3734 1075.23 66.6297 1074.73 65.6725C1074.25 64.7005 1074 63.5887 1074 62.3369ZM1083.64 62.3811C1083.64 61.63 1083.49 60.9894 1083.19 60.4592C1082.9 59.9144 1082.5 59.502 1082 59.2222C1081.5 58.9277 1080.96 58.7804 1080.39 58.7804C1079.81 58.7804 1079.28 58.9203 1078.8 59.2001C1078.31 59.4799 1077.91 59.8923 1077.61 60.4371C1077.31 60.9673 1077.16 61.6006 1077.16 62.3369C1077.16 63.0732 1077.31 63.7212 1077.61 64.2808C1077.91 64.8257 1078.31 65.2454 1078.8 65.5399C1079.3 65.8345 1079.83 65.9817 1080.39 65.9817C1080.96 65.9817 1081.5 65.8418 1082 65.562C1082.5 65.2675 1082.9 64.8551 1083.19 64.325C1083.49 63.7801 1083.64 63.1321 1083.64 62.3811ZM1092.86 58.1619C1093.26 57.5139 1093.78 57.0058 1094.41 56.6377C1095.06 56.2695 1095.79 56.0854 1096.62 56.0854V59.3326H1095.8C1094.83 59.3326 1094.09 59.5609 1093.59 60.0174C1093.11 60.474 1092.86 61.2692 1092.86 62.4032V68.5H1089.77V56.2621H1092.86V58.1619ZM1120.93 56.2621L1117.35 68.5H1114.02L1111.79 59.9512L1109.55 68.5H1106.2L1102.6 56.2621H1105.73L1107.9 65.5841L1110.24 56.2621H1113.51L1115.81 65.562L1117.97 56.2621H1120.93ZM1121.81 62.3369C1121.81 61.0998 1122.05 60.0027 1122.54 59.0455C1123.04 58.0882 1123.71 57.3519 1124.55 56.8365C1125.4 56.321 1126.35 56.0633 1127.4 56.0633C1128.31 56.0633 1129.11 56.2474 1129.78 56.6156C1130.48 56.9837 1131.03 57.4476 1131.44 58.0072V56.2621H1134.55V68.5H1131.44V66.7107C1131.04 67.285 1130.49 67.7637 1129.78 68.1466C1129.09 68.5147 1128.29 68.6988 1127.38 68.6988C1126.34 68.6988 1125.4 68.4337 1124.55 67.9036C1123.71 67.3734 1123.04 66.6297 1122.54 65.6725C1122.05 64.7005 1121.81 63.5887 1121.81 62.3369ZM1131.44 62.3811C1131.44 61.63 1131.29 60.9894 1131 60.4592C1130.7 59.9144 1130.31 59.502 1129.81 59.2222C1129.3 58.9277 1128.77 58.7804 1128.19 58.7804C1127.62 58.7804 1127.09 58.9203 1126.6 59.2001C1126.12 59.4799 1125.72 59.8923 1125.41 60.4371C1125.11 60.9673 1124.97 61.6006 1124.97 62.3369C1124.97 63.0732 1125.11 63.7212 1125.41 64.2808C1125.72 64.8257 1126.12 65.2454 1126.6 65.5399C1127.1 65.8345 1127.63 65.9817 1128.19 65.9817C1128.77 65.9817 1129.3 65.8418 1129.81 65.562C1130.31 65.2675 1130.7 64.8551 1131 64.325C1131.29 63.7801 1131.44 63.1321 1131.44 62.3811ZM1140.67 58.1619C1141.07 57.5139 1141.58 57.0058 1142.21 56.6377C1142.86 56.2695 1143.6 56.0854 1144.42 56.0854V59.3326H1143.61C1142.63 59.3326 1141.9 59.5609 1141.4 60.0174C1140.91 60.474 1140.67 61.2692 1140.67 62.4032V68.5H1137.57V56.2621H1140.67V58.1619ZM1149.6 58.1619C1150 57.5139 1150.51 57.0058 1151.14 56.6377C1151.79 56.2695 1152.53 56.0854 1153.35 56.0854V59.3326H1152.54C1151.56 59.3326 1150.83 59.5609 1150.33 60.0174C1149.84 60.474 1149.6 61.2692 1149.6 62.4032V68.5H1146.51V56.2621H1149.6V58.1619ZM1154.64 62.3369C1154.64 61.0998 1154.88 60.0027 1155.37 59.0455C1155.87 58.0882 1156.54 57.3519 1157.38 56.8365C1158.23 56.321 1159.18 56.0633 1160.23 56.0633C1161.14 56.0633 1161.94 56.2474 1162.62 56.6156C1163.31 56.9837 1163.86 57.4476 1164.27 58.0072V56.2621H1167.39V68.5H1164.27V66.7107C1163.88 67.285 1163.32 67.7637 1162.62 68.1466C1161.92 68.5147 1161.12 68.6988 1160.21 68.6988C1159.18 68.6988 1158.23 68.4337 1157.38 67.9036C1156.54 67.3734 1155.87 66.6297 1155.37 65.6725C1154.88 64.7005 1154.64 63.5887 1154.64 62.3369ZM1164.27 62.3811C1164.27 61.63 1164.13 60.9894 1163.83 60.4592C1163.54 59.9144 1163.14 59.502 1162.64 59.2222C1162.14 58.9277 1161.6 58.7804 1161.03 58.7804C1160.45 58.7804 1159.92 58.9203 1159.44 59.2001C1158.95 59.4799 1158.55 59.8923 1158.24 60.4371C1157.95 60.9673 1157.8 61.6006 1157.8 62.3369C1157.8 63.0732 1157.95 63.7212 1158.24 64.2808C1158.55 64.8257 1158.95 65.2454 1159.44 65.5399C1159.94 65.8345 1160.47 65.9817 1161.03 65.9817C1161.6 65.9817 1162.14 65.8418 1162.64 65.562C1163.14 65.2675 1163.54 64.8551 1163.83 64.325C1164.13 63.7801 1164.27 63.1321 1164.27 62.3811ZM1177.19 56.0854C1178.65 56.0854 1179.83 56.5493 1180.72 57.4771C1181.62 58.3901 1182.07 59.6714 1182.07 61.3207V68.5H1178.98V61.7405C1178.98 60.7685 1178.74 60.0248 1178.25 59.5094C1177.76 58.9792 1177.1 58.7141 1176.26 58.7141C1175.41 58.7141 1174.73 58.9792 1174.23 59.5094C1173.74 60.0248 1173.5 60.7685 1173.5 61.7405V68.5H1170.41V56.2621H1173.5V57.7863C1173.91 57.2562 1174.44 56.8438 1175.07 56.5493C1175.72 56.24 1176.42 56.0854 1177.19 56.0854ZM1188.61 58.8025V64.7226C1188.61 65.135 1188.71 65.4369 1188.9 65.6283C1189.11 65.805 1189.45 65.8934 1189.92 65.8934H1191.35V68.5H1189.41C1186.8 68.5 1185.5 67.2335 1185.5 64.7005V58.8025H1184.04V56.2621H1185.5V53.2358H1188.61V56.2621H1191.35V58.8025H1188.61ZM1205.28 56.2621L1197.71 74.2876H1194.42L1197.07 68.1907L1192.16 56.2621H1195.63L1198.79 64.811L1201.99 56.2621H1205.28Z" fill="#003F62"/>
<path d="M1041.85 100.696H1036.35L1035.33 103.5H1033.6L1038.16 90.9636H1040.06L1044.6 103.5H1042.86L1041.85 100.696ZM1041.38 99.3574L1039.1 92.9897L1036.82 99.3574H1041.38ZM1050.27 101.98L1053.35 93.5867H1055.1L1051.21 103.5H1049.3L1045.41 93.5867H1047.18L1050.27 101.98ZM1056.11 98.5072C1056.11 97.4941 1056.31 96.6077 1056.72 95.8479C1057.13 95.0761 1057.69 94.4791 1058.41 94.057C1059.13 93.6349 1059.93 93.4239 1060.81 93.4239C1061.68 93.4239 1062.43 93.6108 1063.07 93.9847C1063.71 94.3585 1064.19 94.8289 1064.5 95.3957V93.5867H1066.17V103.5H1064.5V101.655C1064.18 102.234 1063.69 102.716 1063.04 103.102C1062.4 103.476 1061.65 103.663 1060.79 103.663C1059.91 103.663 1059.12 103.446 1058.41 103.012C1057.69 102.577 1057.13 101.968 1056.72 101.184C1056.31 100.401 1056.11 99.5081 1056.11 98.5072ZM1064.5 98.5252C1064.5 97.7775 1064.35 97.1263 1064.05 96.5715C1063.75 96.0168 1063.34 95.5947 1062.82 95.3052C1062.31 95.0037 1061.75 94.853 1061.14 94.853C1060.52 94.853 1059.96 94.9977 1059.45 95.2871C1058.95 95.5766 1058.54 95.9987 1058.24 96.5534C1057.94 97.1082 1057.79 97.7594 1057.79 98.5072C1057.79 99.2669 1057.94 99.9302 1058.24 100.497C1058.54 101.052 1058.95 101.48 1059.45 101.781C1059.96 102.071 1060.52 102.216 1061.14 102.216C1061.75 102.216 1062.31 102.071 1062.82 101.781C1063.34 101.48 1063.75 101.052 1064.05 100.497C1064.35 99.9302 1064.5 99.273 1064.5 98.5252ZM1070.59 90.1134V103.5H1068.95V90.1134H1070.59ZM1074.25 91.9767C1073.94 91.9767 1073.67 91.8681 1073.45 91.651C1073.24 91.434 1073.13 91.1686 1073.13 90.8551C1073.13 90.5415 1073.24 90.2762 1073.45 90.0591C1073.67 89.842 1073.94 89.7335 1074.25 89.7335C1074.55 89.7335 1074.8 89.842 1075.01 90.0591C1075.23 90.2762 1075.34 90.5415 1075.34 90.8551C1075.34 91.1686 1075.23 91.434 1075.01 91.651C1074.8 91.8681 1074.55 91.9767 1074.25 91.9767ZM1075.05 93.5867V103.5H1073.4V93.5867H1075.05ZM1077.24 98.5072C1077.24 97.4941 1077.44 96.6077 1077.85 95.8479C1078.26 95.0761 1078.82 94.4791 1079.53 94.057C1080.26 93.6349 1081.06 93.4239 1081.94 93.4239C1082.81 93.4239 1083.56 93.6108 1084.2 93.9847C1084.84 94.3585 1085.32 94.8289 1085.63 95.3957V93.5867H1087.29V103.5H1085.63V101.655C1085.3 102.234 1084.82 102.716 1084.16 103.102C1083.53 103.476 1082.78 103.663 1081.92 103.663C1081.04 103.663 1080.25 103.446 1079.53 103.012C1078.82 102.577 1078.26 101.968 1077.85 101.184C1077.44 100.401 1077.24 99.5081 1077.24 98.5072ZM1085.63 98.5252C1085.63 97.7775 1085.48 97.1263 1085.18 96.5715C1084.88 96.0168 1084.47 95.5947 1083.95 95.3052C1083.44 95.0037 1082.88 94.853 1082.27 94.853C1081.65 94.853 1081.09 94.9977 1080.58 95.2871C1080.08 95.5766 1079.67 95.9987 1079.37 96.5534C1079.07 97.1082 1078.92 97.7594 1078.92 98.5072C1078.92 99.2669 1079.07 99.9302 1079.37 100.497C1079.67 101.052 1080.08 101.48 1080.58 101.781C1081.09 102.071 1081.65 102.216 1082.27 102.216C1082.88 102.216 1083.44 102.071 1083.95 101.781C1084.47 101.48 1084.88 101.052 1085.18 100.497C1085.48 99.9302 1085.63 99.273 1085.63 98.5252ZM1091.72 95.4319C1092.06 94.8409 1092.55 94.3585 1093.21 93.9847C1093.86 93.6108 1094.6 93.4239 1095.43 93.4239C1096.32 93.4239 1097.13 93.6349 1097.84 94.057C1098.55 94.4791 1099.11 95.0761 1099.52 95.8479C1099.93 96.6077 1100.13 97.4941 1100.13 98.5072C1100.13 99.5081 1099.93 100.401 1099.52 101.184C1099.11 101.968 1098.54 102.577 1097.82 103.012C1097.11 103.446 1096.31 103.663 1095.43 103.663C1094.57 103.663 1093.82 103.476 1093.17 103.102C1092.53 102.728 1092.05 102.252 1091.72 101.673V103.5H1090.08V90.1134H1091.72V95.4319ZM1098.45 98.5072C1098.45 97.7594 1098.3 97.1082 1098 96.5534C1097.7 95.9987 1097.29 95.5766 1096.77 95.2871C1096.26 94.9977 1095.7 94.853 1095.09 94.853C1094.48 94.853 1093.92 95.0037 1093.4 95.3052C1092.9 95.5947 1092.49 96.0228 1092.17 96.5896C1091.87 97.1444 1091.72 97.7896 1091.72 98.5252C1091.72 99.273 1091.87 99.9302 1092.17 100.497C1092.49 101.052 1092.9 101.48 1093.4 101.781C1093.92 102.071 1094.48 102.216 1095.09 102.216C1095.7 102.216 1096.26 102.071 1096.77 101.781C1097.29 101.48 1097.7 101.052 1098 100.497C1098.3 99.9302 1098.45 99.2669 1098.45 98.5072ZM1103.95 90.1134V103.5H1102.3V90.1134H1103.95ZM1115.8 98.1634C1115.8 98.477 1115.78 98.8087 1115.74 99.1584H1107.82C1107.88 100.135 1108.21 100.901 1108.82 101.456C1109.43 101.999 1110.17 102.27 1111.04 102.27C1111.75 102.27 1112.34 102.107 1112.81 101.781C1113.3 101.444 1113.63 100.998 1113.83 100.443H1115.6C1115.33 101.396 1114.8 102.173 1114.01 102.776C1113.21 103.367 1112.22 103.663 1111.04 103.663C1110.1 103.663 1109.26 103.452 1108.51 103.03C1107.77 102.608 1107.19 102.011 1106.77 101.239C1106.35 100.455 1106.14 99.5503 1106.14 98.5252C1106.14 97.5001 1106.34 96.6017 1106.75 95.8298C1107.16 95.058 1107.74 94.4671 1108.47 94.057C1109.22 93.6349 1110.08 93.4239 1111.04 93.4239C1111.98 93.4239 1112.81 93.6289 1113.54 94.0389C1114.26 94.449 1114.82 95.0158 1115.2 95.7394C1115.6 96.4509 1115.8 97.2589 1115.8 98.1634ZM1114.1 97.8197C1114.1 97.1926 1113.96 96.6559 1113.68 96.2097C1113.4 95.7514 1113.02 95.4077 1112.54 95.1786C1112.07 94.9374 1111.55 94.8168 1110.97 94.8168C1110.14 94.8168 1109.42 95.0821 1108.83 95.6128C1108.25 96.1434 1107.92 96.8791 1107.84 97.8197H1114.1ZM1136 93.5867L1132.91 103.5H1131.21L1128.82 95.6308L1126.43 103.5H1124.73L1121.62 93.5867H1123.3L1125.58 101.908L1128.04 93.5867H1129.72L1132.13 101.926L1134.37 93.5867H1136ZM1137.02 98.5072C1137.02 97.4941 1137.22 96.6077 1137.63 95.8479C1138.04 95.0761 1138.6 94.4791 1139.32 94.057C1140.04 93.6349 1140.84 93.4239 1141.72 93.4239C1142.59 93.4239 1143.34 93.6108 1143.98 93.9847C1144.62 94.3585 1145.1 94.8289 1145.41 95.3957V93.5867H1147.08V103.5H1145.41V101.655C1145.09 102.234 1144.6 102.716 1143.95 103.102C1143.31 103.476 1142.56 103.663 1141.7 103.663C1140.82 103.663 1140.03 103.446 1139.32 103.012C1138.6 102.577 1138.04 101.968 1137.63 101.184C1137.22 100.401 1137.02 99.5081 1137.02 98.5072ZM1145.41 98.5252C1145.41 97.7775 1145.26 97.1263 1144.96 96.5715C1144.66 96.0168 1144.25 95.5947 1143.73 95.3052C1143.22 95.0037 1142.66 94.853 1142.05 94.853C1141.43 94.853 1140.87 94.9977 1140.36 95.2871C1139.86 95.5766 1139.45 95.9987 1139.15 96.5534C1138.85 97.1082 1138.7 97.7594 1138.7 98.5072C1138.7 99.2669 1138.85 99.9302 1139.15 100.497C1139.45 101.052 1139.86 101.48 1140.36 101.781C1140.87 102.071 1141.43 102.216 1142.05 102.216C1142.66 102.216 1143.22 102.071 1143.73 101.781C1144.25 101.48 1144.66 101.052 1144.96 100.497C1145.26 99.9302 1145.41 99.273 1145.41 98.5252ZM1151.5 95.1967C1151.79 94.6299 1152.2 94.1897 1152.73 93.8761C1153.28 93.5626 1153.93 93.4058 1154.71 93.4058V95.1062H1154.27C1152.43 95.1062 1151.5 96.1072 1151.5 98.1092V103.5H1149.86V93.5867H1151.5V95.1967ZM1158.25 95.1967C1158.54 94.6299 1158.95 94.1897 1159.48 93.8761C1160.03 93.5626 1160.68 93.4058 1161.45 93.4058V95.1062H1161.02C1159.18 95.1062 1158.25 96.1072 1158.25 98.1092V103.5H1156.61V93.5867H1158.25V95.1967ZM1162.74 98.5072C1162.74 97.4941 1162.94 96.6077 1163.35 95.8479C1163.76 95.0761 1164.33 94.4791 1165.04 94.057C1165.76 93.6349 1166.56 93.4239 1167.44 93.4239C1168.31 93.4239 1169.07 93.6108 1169.7 93.9847C1170.34 94.3585 1170.82 94.8289 1171.13 95.3957V93.5867H1172.8V103.5H1171.13V101.655C1170.81 102.234 1170.32 102.716 1169.67 103.102C1169.03 103.476 1168.28 103.663 1167.43 103.663C1166.54 103.663 1165.75 103.446 1165.04 103.012C1164.33 102.577 1163.76 101.968 1163.35 101.184C1162.94 100.401 1162.74 99.5081 1162.74 98.5072ZM1171.13 98.5252C1171.13 97.7775 1170.98 97.1263 1170.68 96.5715C1170.38 96.0168 1169.97 95.5947 1169.45 95.3052C1168.94 95.0037 1168.38 94.853 1167.77 94.853C1167.15 94.853 1166.59 94.9977 1166.09 95.2871C1165.58 95.5766 1165.18 95.9987 1164.87 96.5534C1164.57 97.1082 1164.42 97.7594 1164.42 98.5072C1164.42 99.2669 1164.57 99.9302 1164.87 100.497C1165.18 101.052 1165.58 101.48 1166.09 101.781C1166.59 102.071 1167.15 102.216 1167.77 102.216C1168.38 102.216 1168.94 102.071 1169.45 101.781C1169.97 101.48 1170.38 101.052 1170.68 100.497C1170.98 99.9302 1171.13 99.273 1171.13 98.5252ZM1180.41 93.4058C1181.62 93.4058 1182.59 93.7736 1183.34 94.5093C1184.09 95.2329 1184.46 96.2821 1184.46 97.6569V103.5H1182.83V97.8921C1182.83 96.9032 1182.59 96.1494 1182.09 95.6308C1181.6 95.1002 1180.92 94.8349 1180.07 94.8349C1179.2 94.8349 1178.5 95.1062 1177.99 95.6489C1177.48 96.1916 1177.23 96.9816 1177.23 98.0187V103.5H1175.58V93.5867H1177.23V94.9977C1177.55 94.4912 1177.99 94.0992 1178.55 93.8218C1179.11 93.5445 1179.73 93.4058 1180.41 93.4058ZM1189.16 94.9434V100.786C1189.16 101.269 1189.26 101.613 1189.47 101.818C1189.67 102.011 1190.03 102.107 1190.53 102.107H1191.75V103.5H1190.26C1189.35 103.5 1188.66 103.289 1188.2 102.867C1187.74 102.445 1187.51 101.751 1187.51 100.786V94.9434H1186.23V93.5867H1187.51V91.0903H1189.16V93.5867H1191.75V94.9434H1189.16ZM1202.28 93.5867L1196.31 108.167H1194.61L1196.56 103.391L1192.56 93.5867H1194.39L1197.5 101.619L1200.58 93.5867H1202.28Z" fill="#003F62"/>
</svg>
