<svg width="239" height="29" viewBox="0 0 239 29" fill="none" xmlns="http://www.w3.org/2000/svg">
<path d="M14.8256 7.80284C14.8256 8.82503 14.5792 9.78333 14.0864 10.6777C13.6118 11.5722 12.8543 12.2932 11.8138 12.8408C10.7917 13.3884 9.49567 13.6622 7.92588 13.6622H4.72242V21H0.88922V1.88876H7.92588C9.4044 1.88876 10.6639 2.14431 11.7043 2.6554C12.7448 3.16649 13.5205 3.86925 14.0316 4.76366C14.561 5.65807 14.8256 6.67113 14.8256 7.80284ZM7.7616 10.5682C8.82029 10.5682 9.60519 10.3309 10.1163 9.85634C10.6274 9.3635 10.8829 8.679 10.8829 7.80284C10.8829 5.941 9.84248 5.01008 7.7616 5.01008H4.72242V10.5682H7.7616ZM24.2826 21.2464C22.8224 21.2464 21.5081 20.927 20.3399 20.2881C19.1717 19.631 18.2499 18.7092 17.5745 17.5227C16.9174 16.3363 16.5889 14.9673 16.5889 13.4157C16.5889 11.8642 16.9266 10.4952 17.6019 9.30874C18.2956 8.12227 19.2356 7.20961 20.4221 6.57074C21.6085 5.91362 22.9319 5.58506 24.3922 5.58506C25.8524 5.58506 27.1758 5.91362 28.3623 6.57074C29.5487 7.20961 30.4797 8.12227 31.155 9.30874C31.8487 10.4952 32.1955 11.8642 32.1955 13.4157C32.1955 14.9673 31.8395 16.3363 31.1276 17.5227C30.434 18.7092 29.4848 19.631 28.2801 20.2881C27.0937 20.927 25.7612 21.2464 24.2826 21.2464ZM24.2826 17.9061C24.9763 17.9061 25.6243 17.7418 26.2266 17.4132C26.8472 17.0664 27.3401 16.5553 27.7051 15.8799C28.0702 15.2046 28.2527 14.3832 28.2527 13.4157C28.2527 11.9737 27.8694 10.8694 27.1028 10.1028C26.3544 9.31787 25.4326 8.92542 24.3374 8.92542C23.2422 8.92542 22.3204 9.31787 21.572 10.1028C20.8419 10.8694 20.4768 11.9737 20.4768 13.4157C20.4768 14.8578 20.8328 15.9712 21.5446 16.7561C22.2748 17.5227 23.1874 17.9061 24.2826 17.9061ZM38.8405 8.02188C39.3333 7.32825 40.0087 6.75327 40.8666 6.29694C41.7427 5.82235 42.7376 5.58506 43.851 5.58506C45.147 5.58506 46.3152 5.90449 47.3556 6.54336C48.4143 7.18223 49.2449 8.09489 49.8472 9.28136C50.4678 10.4496 50.7781 11.8094 50.7781 13.361C50.7781 14.9125 50.4678 16.2906 49.8472 17.4954C49.2449 18.6818 48.4143 19.6036 47.3556 20.2607C46.3152 20.9179 45.147 21.2464 43.851 21.2464C42.7376 21.2464 41.7519 21.0183 40.894 20.5619C40.0543 20.1056 39.3698 19.5306 38.8405 18.837V28.2283H35.0073V5.83148H38.8405V8.02188ZM46.8628 13.361C46.8628 12.4483 46.6711 11.6634 46.2878 11.0063C45.9228 10.3309 45.4299 9.81983 44.8093 9.47302C44.2069 9.12621 43.5498 8.9528 42.8379 8.9528C42.1443 8.9528 41.4872 9.13533 40.8666 9.5004C40.2642 9.84721 39.7714 10.3583 39.3881 11.0337C39.023 11.7091 38.8405 12.5031 38.8405 13.4157C38.8405 14.3284 39.023 15.1224 39.3881 15.7978C39.7714 16.4732 40.2642 16.9934 40.8666 17.3585C41.4872 17.7053 42.1443 17.8787 42.8379 17.8787C43.5498 17.8787 44.2069 17.6961 44.8093 17.3311C45.4299 16.966 45.9228 16.4458 46.2878 15.7704C46.6711 15.095 46.8628 14.2919 46.8628 13.361ZM67.8834 5.83148V21H64.0228V19.0834C63.53 19.7405 62.882 20.2607 62.0788 20.6441C61.2939 21.0091 60.436 21.1917 59.5051 21.1917C58.3186 21.1917 57.2691 20.9452 56.3564 20.4524C55.4437 19.9413 54.7227 19.202 54.1934 18.2346C53.6823 17.2489 53.4267 16.0807 53.4267 14.73V5.83148H57.2599V14.1824C57.2599 15.3871 57.5611 16.318 58.1635 16.9751C58.7658 17.614 59.5872 17.9334 60.6277 17.9334C61.6864 17.9334 62.5169 17.614 63.1193 16.9751C63.7216 16.318 64.0228 15.3871 64.0228 14.1824V5.83148H67.8834ZM75.4986 0.7388V21H71.6654V0.7388H75.4986ZM78.3002 13.361C78.3002 11.8277 78.6014 10.4678 79.2037 9.28136C79.8243 8.09489 80.6549 7.18223 81.6953 6.54336C82.754 5.90449 83.9313 5.58506 85.2273 5.58506C86.359 5.58506 87.3447 5.81323 88.1844 6.26956C89.0423 6.72589 89.7268 7.30087 90.2379 7.9945V5.83148H94.0984V21H90.2379V18.7822C89.745 19.4941 89.0605 20.0873 88.1844 20.5619C87.3265 21.0183 86.3316 21.2464 85.1999 21.2464C83.9222 21.2464 82.754 20.9179 81.6953 20.2607C80.6549 19.6036 79.8243 18.6818 79.2037 17.4954C78.6014 16.2906 78.3002 14.9125 78.3002 13.361ZM90.2379 13.4157C90.2379 12.4848 90.0553 11.6908 89.6903 11.0337C89.3252 10.3583 88.8324 9.84721 88.2117 9.5004C87.5911 9.13533 86.9249 8.9528 86.213 8.9528C85.5011 8.9528 84.844 9.12621 84.2416 9.47302C83.6393 9.81983 83.1464 10.3309 82.7631 11.0063C82.3981 11.6634 82.2155 12.4483 82.2155 13.361C82.2155 14.2736 82.3981 15.0768 82.7631 15.7704C83.1464 16.4458 83.6393 16.966 84.2416 17.3311C84.8623 17.6961 85.5194 17.8787 86.213 17.8787C86.9249 17.8787 87.5911 17.7053 88.2117 17.3585C88.8324 16.9934 89.3252 16.4823 89.6903 15.8252C90.0553 15.1498 90.2379 14.3467 90.2379 13.4157ZM101.675 8.18616C102.168 7.38301 102.807 6.75327 103.592 6.29694C104.395 5.84061 105.308 5.61244 106.33 5.61244V9.6373H105.317C104.112 9.6373 103.2 9.92023 102.579 10.4861C101.977 11.0519 101.675 12.0376 101.675 13.4431V21H97.8422V5.83148H101.675V8.18616ZM119.269 8.02188C119.762 7.32825 120.437 6.75327 121.295 6.29694C122.171 5.82235 123.166 5.58506 124.28 5.58506C125.576 5.58506 126.744 5.90449 127.784 6.54336C128.843 7.18223 129.674 8.09489 130.276 9.28136C130.897 10.4496 131.207 11.8094 131.207 13.361C131.207 14.9125 130.897 16.2906 130.276 17.4954C129.674 18.6818 128.843 19.6036 127.784 20.2607C126.744 20.9179 125.576 21.2464 124.28 21.2464C123.166 21.2464 122.181 21.0183 121.323 20.5619C120.483 20.1056 119.799 19.5306 119.269 18.837V28.2283H115.436V5.83148H119.269V8.02188ZM127.292 13.361C127.292 12.4483 127.1 11.6634 126.717 11.0063C126.352 10.3309 125.859 9.81983 125.238 9.47302C124.636 9.12621 123.979 8.9528 123.267 8.9528C122.573 8.9528 121.916 9.13533 121.295 9.5004C120.693 9.84721 120.2 10.3583 119.817 11.0337C119.452 11.7091 119.269 12.5031 119.269 13.4157C119.269 14.3284 119.452 15.1224 119.817 15.7978C120.2 16.4732 120.693 16.9934 121.295 17.3585C121.916 17.7053 122.573 17.8787 123.267 17.8787C123.979 17.8787 124.636 17.6961 125.238 17.3311C125.859 16.966 126.352 16.4458 126.717 15.7704C127.1 15.095 127.292 14.2919 127.292 13.361ZM137.826 8.18616C138.318 7.38301 138.957 6.75327 139.742 6.29694C140.545 5.84061 141.458 5.61244 142.48 5.61244V9.6373H141.467C140.262 9.6373 139.35 9.92023 138.729 10.4861C138.127 11.0519 137.826 12.0376 137.826 13.4431V21H133.992V5.83148H137.826V8.18616ZM151.798 21.2464C150.337 21.2464 149.023 20.927 147.855 20.2881C146.687 19.631 145.765 18.7092 145.089 17.5227C144.432 16.3363 144.104 14.9673 144.104 13.4157C144.104 11.8642 144.441 10.4952 145.117 9.30874C145.81 8.12227 146.75 7.20961 147.937 6.57074C149.123 5.91362 150.447 5.58506 151.907 5.58506C153.367 5.58506 154.691 5.91362 155.877 6.57074C157.064 7.20961 157.995 8.12227 158.67 9.30874C159.364 10.4952 159.71 11.8642 159.71 13.4157C159.71 14.9673 159.354 16.3363 158.643 17.5227C157.949 18.7092 157 19.631 155.795 20.2881C154.609 20.927 153.276 21.2464 151.798 21.2464ZM151.798 17.9061C152.491 17.9061 153.139 17.7418 153.741 17.4132C154.362 17.0664 154.855 16.5553 155.22 15.8799C155.585 15.2046 155.768 14.3832 155.768 13.4157C155.768 11.9737 155.384 10.8694 154.618 10.1028C153.869 9.31787 152.947 8.92542 151.852 8.92542C150.757 8.92542 149.835 9.31787 149.087 10.1028C148.357 10.8694 147.992 11.9737 147.992 13.4157C147.992 14.8578 148.348 15.9712 149.06 16.7561C149.79 17.5227 150.702 17.9061 151.798 17.9061ZM161.536 13.361C161.536 11.8277 161.838 10.4678 162.44 9.28136C163.061 8.09489 163.9 7.18223 164.959 6.54336C166.018 5.90449 167.195 5.58506 168.491 5.58506C169.477 5.58506 170.417 5.8041 171.311 6.24218C172.206 6.66201 172.917 7.22786 173.447 7.93974V0.7388H177.335V21H173.447V18.7548C172.972 19.5032 172.306 20.1056 171.448 20.5619C170.59 21.0183 169.595 21.2464 168.464 21.2464C167.186 21.2464 166.018 20.9179 164.959 20.2607C163.9 19.6036 163.061 18.6818 162.44 17.4954C161.838 16.2906 161.536 14.9125 161.536 13.361ZM173.474 13.4157C173.474 12.4848 173.292 11.6908 172.927 11.0337C172.561 10.3583 172.069 9.84721 171.448 9.5004C170.827 9.13533 170.161 8.9528 169.449 8.9528C168.737 8.9528 168.08 9.12621 167.478 9.47302C166.876 9.81983 166.383 10.3309 165.999 11.0063C165.634 11.6634 165.452 12.4483 165.452 13.361C165.452 14.2736 165.634 15.0768 165.999 15.7704C166.383 16.4458 166.876 16.966 167.478 17.3311C168.099 17.6961 168.756 17.8787 169.449 17.8787C170.161 17.8787 170.827 17.7053 171.448 17.3585C172.069 16.9934 172.561 16.4823 172.927 15.8252C173.292 15.1498 173.474 14.3467 173.474 13.4157ZM195.398 5.83148V21H191.538V19.0834C191.045 19.7405 190.397 20.2607 189.594 20.6441C188.809 21.0091 187.951 21.1917 187.02 21.1917C185.833 21.1917 184.784 20.9452 183.871 20.4524C182.959 19.9413 182.238 19.202 181.708 18.2346C181.197 17.2489 180.942 16.0807 180.942 14.73V5.83148H184.775V14.1824C184.775 15.3871 185.076 16.318 185.678 16.9751C186.281 17.614 187.102 17.9334 188.143 17.9334C189.201 17.9334 190.032 17.614 190.634 16.9751C191.236 16.318 191.538 15.3871 191.538 14.1824V5.83148H195.398ZM198.195 13.4157C198.195 11.846 198.514 10.477 199.153 9.30874C199.792 8.12227 200.677 7.20961 201.809 6.57074C202.94 5.91362 204.236 5.58506 205.697 5.58506C207.577 5.58506 209.128 6.05965 210.351 7.00882C211.593 7.93974 212.423 9.25398 212.843 10.9515H208.709C208.489 10.2944 208.115 9.78333 207.586 9.41826C207.075 9.03494 206.436 8.84328 205.669 8.84328C204.574 8.84328 203.707 9.24485 203.068 10.048C202.429 10.8329 202.11 11.9555 202.11 13.4157C202.11 14.8578 202.429 15.9803 203.068 16.7835C203.707 17.5684 204.574 17.9608 205.669 17.9608C207.221 17.9608 208.234 17.2672 208.709 15.8799H212.843C212.423 17.5227 211.593 18.8279 210.351 19.7953C209.11 20.7627 207.559 21.2464 205.697 21.2464C204.236 21.2464 202.94 20.927 201.809 20.2881C200.677 19.631 199.792 18.7183 199.153 17.5501C198.514 16.3637 198.195 14.9855 198.195 13.4157ZM220.114 8.98018V16.318C220.114 16.8291 220.233 17.2033 220.47 17.4406C220.726 17.6596 221.145 17.7692 221.729 17.7692H223.509V21H221.1C217.869 21 216.253 19.4302 216.253 16.2906V8.98018H214.446V5.83148H216.253V2.08042H220.114V5.83148H223.509V8.98018H220.114ZM232.071 21.2464C230.83 21.2464 229.716 21.0274 228.73 20.5893C227.745 20.133 226.96 19.5215 226.376 18.7548C225.81 17.9882 225.5 17.1394 225.445 16.2085H229.305C229.378 16.7926 229.661 17.2763 230.154 17.6596C230.665 18.043 231.295 18.2346 232.043 18.2346C232.774 18.2346 233.339 18.0886 233.741 17.7965C234.161 17.5045 234.371 17.1303 234.371 16.674C234.371 16.1811 234.115 15.8161 233.604 15.5788C233.111 15.3232 232.317 15.0494 231.222 14.7574C230.09 14.4836 229.159 14.2006 228.429 13.9086C227.717 13.6165 227.097 13.1693 226.567 12.567C226.056 11.9646 225.801 11.1523 225.801 10.1301C225.801 9.29049 226.038 8.52385 226.513 7.83022C227.005 7.13659 227.699 6.58899 228.593 6.18742C229.506 5.78585 230.574 5.58506 231.797 5.58506C233.604 5.58506 235.046 6.04139 236.123 6.95406C237.2 7.84847 237.793 9.06232 237.903 10.5956H234.234C234.179 9.99324 233.923 9.51865 233.467 9.17184C233.029 8.80677 232.436 8.62424 231.687 8.62424C230.994 8.62424 230.455 8.75201 230.072 9.00756C229.707 9.26311 229.524 9.61905 229.524 10.0754C229.524 10.5865 229.78 10.9789 230.291 11.2527C230.802 11.5083 231.596 11.7729 232.673 12.0467C233.768 12.3205 234.672 12.6035 235.384 12.8955C236.096 13.1876 236.707 13.6439 237.218 14.2645C237.748 14.8669 238.021 15.67 238.04 16.674C238.04 17.5501 237.793 18.335 237.3 19.0286C236.826 19.7223 236.132 20.2699 235.219 20.6714C234.325 21.0548 233.275 21.2464 232.071 21.2464Z" fill="#1B5A7D"/>
</svg>
