<svg width="18" height="18" viewBox="0 0 18 18" fill="none" xmlns="http://www.w3.org/2000/svg">
<path d="M1.89197 1.9411H3.13983C3.91437 1.9411 4.52396 2.60806 4.45941 3.37543L3.86417 10.5184C3.76376 11.6873 4.6889 12.6914 5.86504 12.6914H13.5028C14.5355 12.6914 15.4392 11.8451 15.5181 10.8196L15.9053 5.44086C15.9914 4.25037 15.0878 3.28219 13.8901 3.28219H4.63153" stroke="white" stroke-width="1.47531" stroke-miterlimit="10" stroke-linecap="round" stroke-linejoin="round"/>
<path d="M12.1115 16.2844C12.6066 16.2844 13.008 15.883 13.008 15.3879C13.008 14.8928 12.6066 14.4915 12.1115 14.4915C11.6164 14.4915 11.2151 14.8928 11.2151 15.3879C11.2151 15.883 11.6164 16.2844 12.1115 16.2844Z" stroke="white" stroke-width="1.47531" stroke-miterlimit="10" stroke-linecap="round" stroke-linejoin="round"/>
<path d="M6.37424 16.2844C6.86933 16.2844 7.27069 15.883 7.27069 15.3879C7.27069 14.8928 6.86933 14.4915 6.37424 14.4915C5.87914 14.4915 5.47778 14.8928 5.47778 15.3879C5.47778 15.883 5.87914 16.2844 6.37424 16.2844Z" stroke="white" stroke-width="1.47531" stroke-miterlimit="10" stroke-linecap="round" stroke-linejoin="round"/>
<path d="M6.91211 6.24408H15.5181" stroke="white" stroke-width="1.47531" stroke-miterlimit="10" stroke-linecap="round" stroke-linejoin="round"/>
</svg>
